<mxfile host="app.diagrams.net" modified="2024-06-11T00:53:56.189Z" agent="Mozilla/5.0 (X11; Linux x86_64) AppleWebKit/537.36 (KHTML, like Gecko) Chrome/125.0.0.0 Safari/537.36" etag="gZLiu8a8UzVhtx4i-hU3" version="24.4.13" type="device" pages="3">
  <diagram name="Experiments" id="y7bFd--jTI0bOM0KKuuW">
    <mxGraphModel dx="1120" dy="434" grid="1" gridSize="10" guides="1" tooltips="1" connect="1" arrows="1" fold="1" page="1" pageScale="1" pageWidth="827" pageHeight="1169" math="0" shadow="0">
      <root>
        <mxCell id="0" />
        <mxCell id="1" parent="0" />
        <mxCell id="BDU4VzLzIB2JPN8p994O-12" style="edgeStyle=orthogonalEdgeStyle;rounded=0;orthogonalLoop=1;jettySize=auto;html=1;entryX=0;entryY=0.5;entryDx=0;entryDy=0;" parent="1" source="BDU4VzLzIB2JPN8p994O-8" target="BDU4VzLzIB2JPN8p994O-9" edge="1">
          <mxGeometry relative="1" as="geometry" />
        </mxCell>
        <mxCell id="BDU4VzLzIB2JPN8p994O-8" value="" style="verticalLabelPosition=bottom;html=1;verticalAlign=top;align=center;strokeColor=none;fillColor=#00BEF2;shape=mxgraph.azure.laptop;pointerEvents=1;" parent="1" vertex="1">
          <mxGeometry x="50" y="255" width="90" height="60" as="geometry" />
        </mxCell>
        <mxCell id="BDU4VzLzIB2JPN8p994O-9" value="Shell Script" style="rounded=1;whiteSpace=wrap;html=1;verticalAlign=bottom;" parent="1" vertex="1">
          <mxGeometry x="200" y="240" width="80" height="90" as="geometry" />
        </mxCell>
        <mxCell id="BDU4VzLzIB2JPN8p994O-11" value="" style="shape=image;html=1;verticalAlign=top;verticalLabelPosition=bottom;labelBackgroundColor=#ffffff;imageAspect=0;aspect=fixed;image=https://cdn2.iconfinder.com/data/icons/essential-web-5/50/script-programming-coding-add-on-128.png" parent="1" vertex="1">
          <mxGeometry x="210" y="245" width="41" height="41" as="geometry" />
        </mxCell>
        <mxCell id="BDU4VzLzIB2JPN8p994O-13" value="EKS Cluster AWS" style="rounded=1;whiteSpace=wrap;html=1;verticalAlign=bottom;align=left;labelPosition=center;verticalLabelPosition=top;" parent="1" vertex="1">
          <mxGeometry x="360" y="110" width="730" height="330" as="geometry" />
        </mxCell>
        <mxCell id="BDU4VzLzIB2JPN8p994O-15" value="Amazon EKS" style="sketch=0;outlineConnect=0;fontColor=#232F3E;gradientColor=none;strokeColor=#ffffff;fillColor=#232F3E;dashed=0;verticalLabelPosition=middle;verticalAlign=bottom;align=center;html=1;whiteSpace=wrap;fontSize=10;fontStyle=1;spacing=3;shape=mxgraph.aws4.productIcon;prIcon=mxgraph.aws4.eks;" parent="1" vertex="1">
          <mxGeometry x="391" y="120" width="46" height="80" as="geometry" />
        </mxCell>
        <mxCell id="BDU4VzLzIB2JPN8p994O-18" value="Load Test Node" style="rounded=1;whiteSpace=wrap;html=1;labelPosition=center;verticalLabelPosition=top;align=left;verticalAlign=bottom;" parent="1" vertex="1">
          <mxGeometry x="380" y="230" width="170" height="110" as="geometry" />
        </mxCell>
        <mxCell id="BDU4VzLzIB2JPN8p994O-16" value="Locust Pods" style="shape=image;verticalLabelPosition=bottom;labelBackgroundColor=default;verticalAlign=top;aspect=fixed;imageAspect=0;image=data:image/jpeg,/9j/4AAQSkZJRgABAQAAAQABAAD/2wCEAAkGBwgHBgkIBwgKCgkLDRYPDQwMDRsUFRAWIB0iIiAdHx8kKDQsJCYxJx8fLT0tMTU3Ojo6Iys/RD84QzQ5OjcBCgoKDQwNGg8PGjclHyU3Nzc3Nzc3Nzc3Nzc3Nzc3Nzc3Nzc3Nzc3Nzc3Nzc3Nzc3Nzc3Nzc3Nzc3Nzc3Nzc3N//AABEIAIIAggMBIgACEQEDEQH/xAAcAAABBQEBAQAAAAAAAAAAAAAAAwQFBgcCAQj/xAA9EAACAQQAAwQHBgQFBQEAAAABAgMABAURBiExEkFRYQcTIjJxgZEUQlJiocEzcpKxIySC0eEVc7LS8Aj/xAAaAQACAwEBAAAAAAAAAAAAAAADBAACBQEG/8QAJREAAwACAwEAAQMFAAAAAAAAAAECAxEEEiExYSIjQRMUMlGx/9oADAMBAAIRAxEAPwDcaKKKhAorwnWye6oPK55YXa3slE0497n7KfE/tVpl18B5MsY1umS89xFboXmdUUdSx0BUJc8Twc1soZLg/iHJfqf+ahZlkuX9ZeymZ+oB91fgK8dwOlF6TP0zb5mSv8PBzPnMtL7ht7ceQLn9hTCa9yrb3lJF/kiQftXMktNpJa47lAW8lfWD32YQ7jzNxv8ANHGf2pMcTcTWjbW6srpO9Zrcofqp/auSxY6A2fKkJY2B0ylT4EUKsiZaXkn4yWs/SasJCZ3EXFsB1ntW+0Rj4gAMPoaueHzeMzdt9oxV7BdR95icHsnwI7j5Gsqmtu2OYqFuMa9tdi+sJpbO9T3bi3PZYeR7iPI8qp2Q1HLa8tH0BRWW8MekyW3lSx4vCR79mPJRrqM+Ui/cP5hy+Faejq6hkYMrDYIOwRXd7HopWto7ooorpYKKKKhArwnXM0VAcTZR4FSytG1czDr+Be9v9vOrTPZ6BZss4odMb5vMSXEz2Vg5ULylmX7vkPP+1RscaQp2UGh/91rmJY7eNI1Ot9N9Se+kZ7jsSRofvkjfy3RnShaRi1dZa7UKSSU1kkr2R6bOxNJ3mO7SPHfddWttJdPpPdHvN3Cu7GzkvJuwvJRzZvAVY4rVIYxFEulFDTdBccuvRna2aRDSL8z30yy3ZkuFRB7g0T51M3bfZrc6/iMPZqHjgaWTsqO0xrtPXhe/PEMUtGlYIikse4VIxYK3VP8AM+23gOgqWtrRLVO4uepokO6tK19OqEvpRuKOHoY4/WwKTG3JlPPVR/B3FtzwbcLZZFpJsCx1z9prPzXvKeI7u7vq85SES2Mykd2x8aoeRsVcHa7qrfV+FP6jw3ufhuEMqTRJLE6vG4DK6nYYHoQaUrI/RhxG+JyC8M5CQmznJ/6dIx/hv1MW/A9V+Y8K1yjJ7WzVx2rlUgooorpcQu50traSeVgqIpYk9wFUOCV7qWS/nBElwdqD9xPuj9/nU1x1das7ewU6N3Jp/wCQc2/YfOoMuAOXIUWH1nZi8/J2yqF/BzkGYW7PHzeP21HjrupjkrhfskN2h9hZI33+UkA/oaeltmoFlLWOVxfPtwKzReaMCy/Q7Hypa8mykImmryOFpZFRRtmOgK4xsovLC2uV6SxK/wBRViwVnza4YeS0rp1Wjkw6vQ7srNbS3CKPaPNj4mnKxhQXbkANk0sqbNNr9i2oIwSfvUx8Rodeq8Iu4L3VweyOZ5KPAU9trdLZPFz1NKxQLAp72PfXhO6olr1glOnt/Tx+dIuKVNJPVtkY3uF3byj8pqpXMQINW+4PZtpD+U1WJlqlsVzfSpZqyMiExu0cikNHIvVHB2rDzB1WwcC588ScOW19KAl0u4bqMfdlXk3yPIjyIrNchGCpp36KcicfxXeYpm/wcjD66NfCWPk31Uj+mrYq90G4GXVvG/5NgoryimDXM94rufXcVGPqtrbKP9TsSf0UUyMnnTTMXHa4qzJJ92ZEHyjX/euFl3VMl6Wjz2T9WWn+R+rbqMyzfYslYZE/wmb7Lcfyv7p+Ta+tPInqlcYcXJNHc4qyijkhPsSTPs7I/DrwPf5UrG6rwPhx1VeFx4L22HNs3v2lxNbEeHZcgfpqtEtYhFAiAdBzr574e49vMNcTvJaRXSXEolkHaKHtaAJB59deHWtm4P43w/FAEdq7295rZtZ9Bv8ASejfL6UecbTbHYw9abLK20TlzY9BSSwiIE9XPU08KaG9c6Qk61ZoK5GrjdJFaXYc6TahsE0ItSTUq9JkbNV2DaGeTfsWZH4jqq7MetTGZmBcRg+71+NQU70C69E8vtEden2TVet8guL4swd0Dpkv4wfJH9hv0Y1M5GdYo2dzoAVn2buXMxuvvRsHUeGuddx1ukc46/dTPrGik4H9ZBG/4lB/SitA3TGM/IYOL85Gdj/Mq31jWuIp/OmXpdabFcemaIlY7u1jk59GILKR+g+tRmPy0c4Ab2G8D0pLkNpmNmxOLb/2WPIXDLib1kbTLbyEEdQeyayN3A6arTpy1xYXEEZHaliZF2eWyNCq3g+DrsZS2lyX2drWNu06q/a7Wug1rpvVc4+WZl7YzxbmJe2U8vVv9G+YgxXENpPc69Wr+0fAeNPOL+B1WGTIYJdBQXltd8td5T/1+nhWexztGwZSQR3im4yK1tDsWrW5Ps6KWOeNXidWjcbVlOwRSUq1gHAPpLuMR2bS9Yy2v4Sea/CtuwfEGOzkAaxuEdvw79ofKrNeFqW0LyDVIsaczL1pqwpeheloSc0jPKIYmdvl50rKyRoWc6AqByN761uXJR0FBu+qAW+qGV3KWYsTzJ3UVdTBFJJpa6uAN6qGu5C3U0m6EqIvLTtL16Duqp5dDJG6L1bkPnVkvjvdRthaNkOIMZZoNma8iQjy7Y3+m6Nx1ui3HX7h9O2q9i1hU9Qij9KKVAGqK1ja0ZR/+gMSZcRj8zENmzmMUmvwSa0f6lH9VZDYzbA519TcQ4mHOYS8xdz/AA7mJoye9SRyYeYOj8q+UJba5xORuMffp6u5t5DHIvgR+3fS3IjtIvycfaS22F0y60xqetbzpsVTbGbWudTlrNyHOsety9GXvRa7e6B5dx7qz6XhWC+mymKtuxDf2cnrrRugmgfmEPwPLfnVphn6c6jstKbTPYjIxa7byG0lUdWRuY+hG6Y4+Vy2kGwZWm0jLriKa1neGdGjljPZZGGiDT3HZzIYyZJ7K6khljIZHU9CK0fi/huHPxevgCx36D2X7pB4N+xrKJ7aW2neGeNo5UbssrDmDWlizTlXhpYc05V59Povg30gDiPGCRigvIgBcQnuP4h+U1Ny5qT7qovmK+Y8TkLvE30d5YyGOVPow7wR3g1q2C4ysswixyMLa774ZDoMfynv/vS+eMk+z8F+RNx7PwuV3kJJTt3JqMuJye+kZJSfjSDMTSLbbM95GziaTdMZ23Tpx1ppMNCrTGzhEXp5Gpv0S4s5DjRbxlJix8TSb/OwKr+hY/KoDIuADz0BWyeivAthuHBLcJ2bq9b18gPVQfdX5Dn8Sad4+P8AVsZ4k9q2XPVFe0U6awVjfpz4OaVBxTjo9vCoS+RR7yDpJ8uh8teFbJXEkaSIySKGVhplI2CPA1xraONbR8k2E2wKnrSXpzqU9JHAUvCd8+UxsbPhJn6AbNqx+6fy76Hu3rw3A2MgYKazuRh0zJ5OJy9lht22KZXO7riawg3tbWJ7hh5nSindpogc6TwievymUvPu+tECHyQc/wBTQseJrb/Avj87V+P+k5GSdaqH4o4ZizUAmh7Md8i+w56OPwt/v3VPRR04Ef0ruOKitoHF1FdpMjxnDc1/NNarPHBewn2redSpI8iN7+ldXPDtxYXUcGS7MMTnQnC9tP8An4da0fN4JMh2LmBvU30XOOUct67jXuNuhkInsslEouU9mSN15P5gVoLJT9Rof3dNdl8/kRwOLhsLNfUXUt0rjYkZ9rr8o6AVIFKjjibjFyNLiXLwk7e2fn9KeWl/BdAqNpMvvRN1BoFYNvsvRW1t9k9hIuqjbxwBT+6mVAd6plisVe8S5L7FYDsqujPORtYVP9z4CrTj0CW7fVDngThxuI84JZ03j7Nw02xykfqE/sT5fGtzVQo0BUfg8Ta4XGw2NlH2Ioh82PeT4k1I0zE9Vo28GFY50FFFFWDhRRRUIJ3EMVxC8U6LJE6lXRhsMD1BFY5xj6L7nHSyZDhRDPak9p8fv24/+2e8flPPw30rZ6K45VLTK3CtaZ80WF4AxRgyup06OCrKfAg8walcLGlpE0SuDGXZ1315nZ34862DiPg3DcRe3e23YuQNLcwnsSL8+/4HYqh5H0b5qwJbF3UV/EPdSX/CkHz90/pQP6TXz4ZWbiXG+nwbQSL406Rwagp7fM446vsTfQ66sIS6/wBS7FcrmoYxqSQIfB+R/WuqEIUrn6ixdsCmGUs0uuzLEwjuo+aSfsai2zsDHSzI3kDulIZ768IWysLycnp6u3cj661V1pPaOxV73KHFllxKWgutR3UfvKfveYpjm2tZwZWb1Uq9JVOiPj41Jr6PeIs20csqx4tlPKaVg7gfyr+5FXzAej7FYtknuy+Qu15+tnA7IPiEHIfqfOr/AJkcji5LapeGecJcLZ/iN93oNpjl6XZXTyj8in/yPL41seFw9lhbJLTHwiKJPDmWPeSe8+dPlUKABXVTRpYsEY/UvQooorocKKKKhAoooqECiiioQ8oNFFQgEDwFN5IYn9+JG+Kg0UV1A7OVtoFPswxj4IKcIBroK8orrK4zsUCiiqhj2iiioQKKKKhAoooqEP/Z;" parent="1" vertex="1">
          <mxGeometry x="450" y="267.5" width="35" height="35" as="geometry" />
        </mxCell>
        <mxCell id="BDU4VzLzIB2JPN8p994O-17" value="" style="sketch=0;html=1;dashed=0;whitespace=wrap;fillColor=#2875E2;strokeColor=#ffffff;points=[[0.005,0.63,0],[0.1,0.2,0],[0.9,0.2,0],[0.5,0,0],[0.995,0.63,0],[0.72,0.99,0],[0.5,1,0],[0.28,0.99,0]];verticalLabelPosition=bottom;align=center;verticalAlign=top;shape=mxgraph.kubernetes.icon;prIcon=node" parent="1" vertex="1">
          <mxGeometry x="390" y="232.5" width="30" height="30" as="geometry" />
        </mxCell>
        <mxCell id="BDU4VzLzIB2JPN8p994O-47" value="" style="shape=flexArrow;endArrow=classic;html=1;rounded=0;" parent="1" edge="1">
          <mxGeometry width="50" height="50" relative="1" as="geometry">
            <mxPoint x="300" y="285" as="sourcePoint" />
            <mxPoint x="350" y="285" as="targetPoint" />
          </mxGeometry>
        </mxCell>
        <mxCell id="BDU4VzLzIB2JPN8p994O-49" value="" style="group" parent="1" vertex="1" connectable="0">
          <mxGeometry x="630" y="230" width="230" height="110" as="geometry" />
        </mxCell>
        <mxCell id="BDU4VzLzIB2JPN8p994O-26" value="Scenario Node" style="rounded=1;whiteSpace=wrap;html=1;labelPosition=center;verticalLabelPosition=top;align=left;verticalAlign=bottom;fillColor=#d5e8d4;strokeColor=#82b366;" parent="BDU4VzLzIB2JPN8p994O-49" vertex="1">
          <mxGeometry width="230" height="110" as="geometry" />
        </mxCell>
        <mxCell id="BDU4VzLzIB2JPN8p994O-27" value="" style="sketch=0;html=1;dashed=0;whitespace=wrap;fillColor=#2875E2;strokeColor=#ffffff;points=[[0.005,0.63,0],[0.1,0.2,0],[0.9,0.2,0],[0.5,0,0],[0.995,0.63,0],[0.72,0.99,0],[0.5,1,0],[0.28,0.99,0]];verticalLabelPosition=bottom;align=center;verticalAlign=top;shape=mxgraph.kubernetes.icon;prIcon=node" parent="BDU4VzLzIB2JPN8p994O-49" vertex="1">
          <mxGeometry x="10" y="2.5" width="30" height="30" as="geometry" />
        </mxCell>
        <mxCell id="BDU4VzLzIB2JPN8p994O-28" value="" style="shape=image;html=1;verticalAlign=top;verticalLabelPosition=bottom;labelBackgroundColor=#ffffff;imageAspect=0;aspect=fixed;image=https://cdn1.iconfinder.com/data/icons/social-media-2106/24/social_media_social_media_logo_docker-128.png" parent="BDU4VzLzIB2JPN8p994O-49" vertex="1">
          <mxGeometry x="20" y="45" width="49.5" height="49.5" as="geometry" />
        </mxCell>
        <mxCell id="BDU4VzLzIB2JPN8p994O-29" value="" style="shape=image;html=1;verticalAlign=top;verticalLabelPosition=bottom;labelBackgroundColor=#ffffff;imageAspect=0;aspect=fixed;image=https://cdn1.iconfinder.com/data/icons/social-media-2106/24/social_media_social_media_logo_docker-128.png" parent="BDU4VzLzIB2JPN8p994O-49" vertex="1">
          <mxGeometry x="90" y="45" width="49.5" height="49.5" as="geometry" />
        </mxCell>
        <mxCell id="BDU4VzLzIB2JPN8p994O-30" value="" style="shape=image;html=1;verticalAlign=top;verticalLabelPosition=bottom;labelBackgroundColor=#ffffff;imageAspect=0;aspect=fixed;image=https://cdn1.iconfinder.com/data/icons/social-media-2106/24/social_media_social_media_logo_docker-128.png" parent="BDU4VzLzIB2JPN8p994O-49" vertex="1">
          <mxGeometry x="160" y="45" width="49.5" height="49.5" as="geometry" />
        </mxCell>
        <mxCell id="BDU4VzLzIB2JPN8p994O-50" value="" style="shape=flexArrow;endArrow=classic;html=1;rounded=0;" parent="1" edge="1">
          <mxGeometry width="50" height="50" relative="1" as="geometry">
            <mxPoint x="570" y="286" as="sourcePoint" />
            <mxPoint x="620" y="286" as="targetPoint" />
          </mxGeometry>
        </mxCell>
        <mxCell id="BDU4VzLzIB2JPN8p994O-51" value="" style="group" parent="1" vertex="1" connectable="0">
          <mxGeometry x="920" y="140" width="150" height="110" as="geometry" />
        </mxCell>
        <mxCell id="BDU4VzLzIB2JPN8p994O-32" value="Monitoring Node" style="rounded=1;whiteSpace=wrap;html=1;labelPosition=center;verticalLabelPosition=top;align=left;verticalAlign=bottom;" parent="BDU4VzLzIB2JPN8p994O-51" vertex="1">
          <mxGeometry width="150" height="110" as="geometry" />
        </mxCell>
        <mxCell id="BDU4VzLzIB2JPN8p994O-33" value="" style="sketch=0;html=1;dashed=0;whitespace=wrap;fillColor=#2875E2;strokeColor=#ffffff;points=[[0.005,0.63,0],[0.1,0.2,0],[0.9,0.2,0],[0.5,0,0],[0.995,0.63,0],[0.72,0.99,0],[0.5,1,0],[0.28,0.99,0]];verticalLabelPosition=bottom;align=center;verticalAlign=top;shape=mxgraph.kubernetes.icon;prIcon=node" parent="BDU4VzLzIB2JPN8p994O-51" vertex="1">
          <mxGeometry x="10" y="2.5" width="30" height="30" as="geometry" />
        </mxCell>
        <mxCell id="BDU4VzLzIB2JPN8p994O-34" value="Prometheus Pods" style="shape=image;verticalLabelPosition=bottom;labelBackgroundColor=default;verticalAlign=top;aspect=fixed;imageAspect=0;image=data:image/png,iVBORw0KGgoAAAANSUhEUgAAAIQAAACDCAMAAAB7n0MtAAAAdVBMVEX////mUizkPQDlTCHlRRTysqftjn364+DmUCnkQADmTiXlSRz2y8PlRxj2ycLlQQn87+3++Pf76OX1w7vnVzTxq5/pcVjnXDzwpJbuk4L30cvjMgDzua/419L53NjoYUPqd1/shnPoZ0vrf2vvno/pbFLiGQChpfYgAAAITklEQVR4nL1ca4OyLBBNpCSQvFSW1moXe///T3zFW94GRqvnfNl2F/U4DMOZAVqtliPwQyct4IR+8MFtFsJ33OPmlZ0OlsU455Z1OGWv+9F1/H9EIEjyZ+YRKjhTsBTUB25Tsj09493PjZIeowspHm8BYFxsL6/z3y8ZMCE59Pw3uBRWnv6CQbCPbApaYGQRKqPrtx0kOB8IwgY9e3g8/yaNML5IyAhM2qA5BLk7X6Lgx0yC7ysOxzvIovi3HYff4LC2NK4gb/7qoPUUyc4fU/g7bTXPELfVak91HJSPWu5HFPzY07kjZ0WbM9xXTTN6/8BD/zL9W4pd0WgjTCSKPjkkSzkcL/pRad9UqxhBwmIkX0TBjzzDnb0yKh4NPlGDnhZ0SXowvSG/lVPVDmOJAvb8LnGFMUDSY2UxeDobkKbXeRzWxHznSx2GboNgBbMns0LGGdHPTNSN99venw8RzMKb4Z5HYuZg8ahu7Z+6VrPdh8aINEbbAcPBsu9N+7jTH+QaXHRXeRskB9PQrEm0L+W8H1sw2+sv91C2uG41t6Dv/hbvu729gPjGMO4dzRwSDQeWXd/RQ7ydbN08V8b9zplmsTdxSG3d2Lw4q2fDQnbeqCHOHQQJdRctgpM2RnlFuHnVD6Hr92X1JFZOJrkxgrKDXujc9XdQXZDWNGXHqknVH0QJh6s5xoinjsPVMDiFGmB59UTRTS7K2MDKOeoPMcB1QSs16ZNyRPjVGLS7s2I5lVaRQx8nGhbwZPYy+RQtg3+pbBnrXhmq16/dPsPkRwcoWTQrg+oxpapso3aJQIWKS2Ubs95TrwN0SGi2Yz1xqtfuDg71AtLiWfUxQQkMoEOeRjOy2ogvPrpJSt4h9IQRGPwxxWFn9mp+b/uNnQZj/WLJxjZH1OQzJXEChD81XeB6hbYbXH/isrGNr0+HajAyJrFG6JhL7dJOFTt7uNuiHbM5SvvKsW8KM/vG85SM8Yba+Uzt9rOPuJka5MN7YAzhtQPiIe6D6wsF0PE0XBowHKYBohuZ1fpidBkVhPakq5kOmGLGcCLbIwJ+lXCVeGarIRLSFSumLLkC7esbjUJuQXZt8/tuNUS67WmVF8oUvHvJH0bid/K4iWgX0t4fXZRY9rovY5ARJYReoQZWz00ClCnsjn8HmEyOGIqTWV+0YYZbKYwb7BHzXr//JhCN4jgC71G/ehq16WR86yMehB5dPa1FJ/pjnEiYEvv1gARqlDKr6cQEQcLYG6u/AYkQNY21A3uDMJytFcgKwVCwPVDj41ZfjRlNo1nTDFwxq5aqDqbz6Pyq/RWlberMASGpiix0ftkLk4C0QgljtpGQQsDRpfct7GryxbiE2S/HCFEFNXZSbQOMOBYLaqE+SnVbl9JqmKYUUdkYkchQJIgKVwkqYVobnzkmoaugvVFmdYYa089JSJXfHlGW+F13lMMDFdgMimYSoYUiwdXAQ025S4aogwpWVZ3+hpln+Gv+4jNmcm5ujXIfxuavLeYYZ6tnBFxIMRcfR0BJ3VrFH1BN5zsFTtSoPKwggWpZsJjrFIhSYk0iRJOQc8MVpn5WkUB3h8VP8zg4KMnfkIAckxNqd1+GzHPNXvgpt5kAzylHB+DELEuu8U0UTOqL2WmOV/w1hlB7S4h1i6+Qo7KHDwcrkqjtQ+nx+eBeWXmBSo9TKOuaFpeenUXx3lGbj0IgdvEogAV/OyiDdB8fKJU2xW+VOXu2lPSV79NWm56BOapUjtDSwDs5Kpkkx032H1btuv894mufMijgyrokmD7T0SpmgN2QkY7dB6wFlWtpsKjxkI9EAawFlStIcClaLlAyEFwwfm5VtUYT4+lX9sOUgMt5VdEeVmHjauVSaOo2VXVZU7mjizeA9BGAO6Saar9mdZ6J7+zm05SCavWqk2Hf6RBdfi6rmkOom3NnTluTcHTFQbsKiYFO6jL7841rukJ3u56nVaTwuh0WT11iI5qyfKrV5mpX2SeItTLPa3ejwQOobLdZf4BYK/w7qw2GTNCmH8Bw67eId5Fbpb6PzvLFCpe6fh+9YIjZ0vQL2N1k39HmCJJ8AO3rkV51VLdELc+hsxihbt2D95fSEk2qMnfLXB+uZt4YZtm6+XxBveqNHUyCZwG67c9IbEcmhmeZX5FgQ0MUjUEH+hUJMuFrw22VvyYxmeanUOsfkZDjVeYVvPf5NyQgheBNzyA/IcE4kNcCi4ifBatkmsSUV1Z4TgoQHsWb5ZgWsPYLZA3syOH2B5jkMN4N07UdrhL8Mag2kfg3wsK0Z/lmKEjbWwQM9+CwQ1QIHtqVB3uT7Nyd67q78kf5qfzFrT+pH4m+tM7NxeGQ6fTmuIQ0Be0GDsYQ9bf0osscUQmyNoXYTobrIRLNQSPzDgYFXXJ7QR4AcjUZGWbhXtOjDL9usoMPVmCWitewmJqzAyIBWTBqdG14Cx27zKp2pBY0UoXxWAI4QLmceYQzzCAP14dczbYJkc0+RhpAh58MtRsfymvpa0lV9Ag4BiMaFg4Dlk+2C9aYFf6AU1hMgD3iAidrhbW4AOc/pxUfo/fJMRLk03GO0eGeuFnYA5UWIY4jGsGaT88Z4jOVWtw5ppODlUnvnnRez082dDrQcrL5/BRvGlGgn+npFa/3SbK7xlEGmIzR13fq43voEDPjwtsSsvWgk+bcg314Po0XweyyGHXE46NsYYTkOeNUeQlq39yvn/h3ckuidqYrCCl/c8a+CEWx1H3RQNMLgnib77nCBNI8YkTyadnCGC9YRvmX1os0CMIkj06W8KiwazLqex8E9YR1euVu+O++DyNMdut8c3tkB/UNGI/bPS8ihrP0+f8Dnx2GZBPDmvsAAAAASUVORK5CYII=;" parent="BDU4VzLzIB2JPN8p994O-51" vertex="1">
          <mxGeometry x="49.809999999999945" y="32.5" width="50.38" height="50" as="geometry" />
        </mxCell>
        <mxCell id="BDU4VzLzIB2JPN8p994O-52" value="" style="group" parent="1" vertex="1" connectable="0">
          <mxGeometry x="920" y="320" width="150" height="110" as="geometry" />
        </mxCell>
        <mxCell id="BDU4VzLzIB2JPN8p994O-43" value="Monitoring Node" style="rounded=1;whiteSpace=wrap;html=1;labelPosition=center;verticalLabelPosition=top;align=left;verticalAlign=bottom;" parent="BDU4VzLzIB2JPN8p994O-52" vertex="1">
          <mxGeometry width="150" height="110" as="geometry" />
        </mxCell>
        <mxCell id="BDU4VzLzIB2JPN8p994O-40" value="" style="sketch=0;html=1;dashed=0;whitespace=wrap;fillColor=#2875E2;strokeColor=#ffffff;points=[[0.005,0.63,0],[0.1,0.2,0],[0.9,0.2,0],[0.5,0,0],[0.995,0.63,0],[0.72,0.99,0],[0.5,1,0],[0.28,0.99,0]];verticalLabelPosition=bottom;align=center;verticalAlign=top;shape=mxgraph.kubernetes.icon;prIcon=node;fontStyle=1" parent="BDU4VzLzIB2JPN8p994O-52" vertex="1">
          <mxGeometry x="10" width="30" height="30" as="geometry" />
        </mxCell>
        <mxCell id="BDU4VzLzIB2JPN8p994O-42" value="Kubecost Pods" style="shape=image;verticalLabelPosition=bottom;labelBackgroundColor=default;verticalAlign=top;aspect=fixed;imageAspect=0;image=data:image/jpeg,/9j/4AAQSkZJRgABAQAAAQABAAD/2wCEAAkGBwgHBgkIBwgKCgkLDRYPDQwMDRsUFRAWIB0iIiAdHx8kKDQsJCYxJx8fLT0tMTU3Ojo6Iys/RD84QzQ5OjcBCgoKDQwNGg8PGjclHyU3Nzc3Nzc3Nzc3Nzc3Nzc3Nzc3Nzc3Nzc3Nzc3Nzc3Nzc3Nzc3Nzc3Nzc3Nzc3Nzc3N//AABEIAIIAggMBEQACEQEDEQH/xAAbAAEAAgMBAQAAAAAAAAAAAAAABQYBAwQCB//EADsQAAEDAgMEBQwBAwUBAAAAAAEAAgMEEQUhMQYSE0EUIlFhcSMyQlKBkaGxwdHh8GIVFnIzNHOS8Qf/xAAaAQEAAgMBAAAAAAAAAAAAAAAAAwQCBQYB/8QAKxEAAgIBAwMEAgICAwAAAAAAAAECAxEEEiEFMUETIjJRYXGRoRWBFDM0/9oADAMBAAIRAxEAPwD7igCAIAgCAIAgCAIAgCAIAgCAIAgCAIAgCAIAgCAIAgME2QEdUY1RwSFnEL3DUMF7e1RytiinbrqK3hv+D3R4rSVRDGSWefRfkSvY2Rl2M6dXTbxF8nfe6zLIQBAEAQBAEAQBAEAQBAEBgoCv7QYk4ONJA62XlHD5KvdZj2o1HUNU0/Sh/sh6Wjnq3FtPGXW1OgHtUEYuXY1tNFlz9iPE8MtNLw5mFjxmL/NJJxfJjOudUsSWGWTAcRNVGYZjeZg1PpDtVqqe5YZu9DqvVjtl3RMBSmwCAIAgCAIAgCAIAgCAIDRWTimppJnaMaT4nkvJPCyR2zVcHJ+Ckkvmmubuke73kqj8mcs91kvyy5YdRto6VkTddXHtKuxjtWDp6KVTBRRzY7RCppC5o8rEN5p7RzCxthuiQa6hW18d0VqiqDS1Ucw0aet3jmqkJbZZNFRb6VikXdhBaCMwcwr51SeeT0gCAIAgCAIAgCAIAgCAhdp5tykZENZH5juH6FDe/bg1vU54qUfsisAg42IsJ0jBf9lFSsyKHT6992fotw0Vs6EEXQFIr4ejVs0I0a428NQqM1iRy2or9O2UfyWjA5uNhsJJzaNw+xW63mKN/o7N9MWSCzLQQBAEAQBAEAQBAcFditNRndkcXP8AUYLlYSsjHuVr9XXTxJ8nD/ckV86eS3cQo/XRU/ylf0yJxvFaesqYWscW7rNH5Zk/hQ22Rk+CjrtXC6S2+CT2VjyqJO0hqloXDZb6VH2ykWBWDbhAVXaWPdr2vHpsHwyVS9e7Joepxxan9o7dl33gmj9V4PvH4UlD4wWulyzXJfknVObQIAgCAIAgCAIDixeq6JQvkbbfPVb4lYTltjkr6q70anLyVCNktTMGMBfI88zqe1UknJnNxjO2eFy2Sn9vVO5fixX7M/mp/QZf/wAXZjuirY5SzU1c5kzN0gAdoVK6DjLk1GqpnVZtkiV2YxSahgId5SFzzdp1GQ0U1FjguS7oNZKiOHyi60tTHVRNkhcHNPwV9NNZR0ddkbI7os3r0kK5tS3r0zu5w+Sr3rsafqq5i/2Y2Wd5aobyLQfj+V5p+7MelP3SRZFZN0EAQBAEAQBAEBB7Uk9FhHLifQqG/sjV9Ub9OP7OHZloOIuJ1ERt7wo6PkVemJes/wBFqVo3xTtoAHYnMCAQQLg+Cp3L3nOdR/72aIMLc3DukwXLA477B6Ph3LFVezKI46STp9WP8HrDq6ShnD2G7D57O1IT2M902olRLK7FxppmVELZYjdjhcFXU01lHR1zjOKlHsQm1XmU/bdygv7I1nVfjE07Lf7ub/j+qxo7si6V85fosytG7CAIAgCAIAgCAidpIeJhxeBnG8O+n1UVyzEodRhuoz9EFg84p8RicTZruqT4/oVep4marRWenevzwW580cf+o9rf8jZXM47nRSnGPdlQx+op/wCpPc2eMhzWnJ4VO6S39zneoTg73hkvsxPC+gcwSsJEhyDh2BTUSW02PTbIunGfJw45h3RZeNE3yL9R6p+yjtr2vKKev0qre+PZmdn67gT9Hkd5OQ5dzvyvaZ4eGZdP1OyXpy7M37Uu8pTN7nH5L2/wSdVfMV+zGyrbz1D+xoHx/CafyOlL3SZZFZNyEAQBAEAQBAEBH4vWU9PTOZOd4yAgMGpWFkklyVdVfXXBqfk+c1dXPxHMLjHY6N+61cpvODkZWSySFHOaqMOcS6QZOvmbqSMnJE8JOznuzlxanlbJG/hSAOba+6eX/qwti85I765JptDCSQJGkWNwc17U2hTxklekz8F0XFduO9FxuFNuljBb9e3a454OGCrDpDHJ1JWnlpfuUUZ84ZWjZh/klcSrOmuhfzbGGu/y5qeyW7Be1V/rOL+kS+y8dqeaT1nge4flTUL25Nj0uOK2/wAk6pzaBAEAQBAEAQGirqG01PJM/wA1guvJPCyR22KuDk/BSp5pKmd0kh3nvP6AqLbk8nMWWSunufdm+s2cd0cVkwvI0daMch2ley0/G4sWdMkq/Uff6NeGTjDqgSRMG5o9o9ILyuWx5RDpbvQnuXYnMe3KvDY6qE7wY4H2HL7KxbiUMo2uuxbQrIkXgkjG4gxkoa5kgLDcXHcoqn7uShoZRV219nwTVZgdNO0uiHBk/jp7lPKmLNpd0+qz48Mo+P0UtDWgSixcNRoe8LX3QcJcnN6uidE8SPGDVRqGz75uWuBv3foXlUtxjVLKPoeCw8HDoWkWLhvH25rZ1rEUdXo69lMUd6zLQQBAEAQBAEBF7Rb39Lk3fWbfwuo7fgyl1D/zsr2EFgxKnMnm73x5fGyrV43cmm0bir47i52BbYjJXTpirY1hbqV5mgbeAnMD0PwqtteOUaHW6P03vguDip6t8EckR60Mgs9h+Y71HGTXHgqVXyrTh3i/BywzAuvG7rsOnMELBS+iCM8PK7ovGH1TaulZM3Uizh2Hmr8Zblk6qi1W1qaKj/8ASaqER0kDT5clzstQ39+Spa6SSS8mn63OOIR8kFsbSuq698YHVIG8ewc1X0kd0sGt0FLtuUT6o0ACwFgOS252CMoAgCAIAgCAIDVVQtqIHxP814sV41lYMLIKcXF+Sk1VPJSTuilFnN0toR2hUZRcXg5i6qVM9rJfD8edE1sVW1zgMhIMz7Qp4XeJGx0/UcLbZ/JMxVtJVNIZNG++RaT9CplKLNlC+q1cSTIfEsCIvLRC41MX2UNlPmJrtT0/Puq/gqeLU5ikMt+HK3zmk2PiqVkccmiurcXzwzkg2jrqHeFLUHra3aCPio46icOzPadZdT8GRU89RX1TpJ3vmqJHAG+ZJ5AfZQylKcsvlkU5zunuk8tn03Y3AzhNBv1AHS5utJ/Acmrbaan04892dP07R/8AHrzL5P8AosSsmyCAIAgCAIAgCAIDlraGGsj3Jm3I81w1asZQUlhkN1ELo4kV2rwKqhJMIEzP45H3KtKlrtyaa7p1sPhyiNkjfGbSsczuc2yiw0UZQlH5I8Ai1gV5kx3P7MOhZNZpjD+wWzTbkbN3gzFsn0x1+iujB9Jzi0fdFpd3gmq6bZb4x/RZsF2bocJIljiD57W4jsyPC6tVaeFfK7m60vT6tP7ly/smrKcvmUAQBAEAQBAEAQBAEBgi6AwWg65oeNZPJghOsTP+oXm1GOyP0ZbGxvmtA8BZMGSSXZHqy9PTKAIAgCAIAgCAIAgCAIAgCAIAgCAIAgCAIAgCAIAgCAIAgCAIAgCAIAgCAIAgCAIAgCAID//Z;" parent="BDU4VzLzIB2JPN8p994O-52" vertex="1">
          <mxGeometry x="40" y="16.5" width="67" height="67" as="geometry" />
        </mxCell>
        <mxCell id="BDU4VzLzIB2JPN8p994O-53" value="" style="shape=flexArrow;endArrow=classic;html=1;rounded=0;" parent="1" edge="1">
          <mxGeometry width="50" height="50" relative="1" as="geometry">
            <mxPoint x="860" y="194.5" as="sourcePoint" />
            <mxPoint x="910" y="194.5" as="targetPoint" />
          </mxGeometry>
        </mxCell>
        <mxCell id="BDU4VzLzIB2JPN8p994O-54" value="" style="shape=flexArrow;endArrow=classic;html=1;rounded=0;" parent="1" edge="1">
          <mxGeometry width="50" height="50" relative="1" as="geometry">
            <mxPoint x="860" y="374.5" as="sourcePoint" />
            <mxPoint x="910" y="374.5" as="targetPoint" />
          </mxGeometry>
        </mxCell>
        <mxCell id="BDU4VzLzIB2JPN8p994O-55" value="Grafana Dashs" style="image;aspect=fixed;html=1;points=[];align=center;fontSize=12;image=img/lib/azure2/other/Grafana.svg;" parent="1" vertex="1">
          <mxGeometry x="1160" y="149.29999999999998" width="68" height="52.800000000000004" as="geometry" />
        </mxCell>
        <mxCell id="BDU4VzLzIB2JPN8p994O-56" value="" style="shape=flexArrow;endArrow=classic;html=1;rounded=0;" parent="1" edge="1">
          <mxGeometry width="50" height="50" relative="1" as="geometry">
            <mxPoint x="1101" y="180.7" as="sourcePoint" />
            <mxPoint x="1151" y="180.7" as="targetPoint" />
          </mxGeometry>
        </mxCell>
        <mxCell id="BDU4VzLzIB2JPN8p994O-58" value="Locust Html Results" style="shape=image;html=1;verticalAlign=top;verticalLabelPosition=bottom;labelBackgroundColor=#ffffff;imageAspect=0;aspect=fixed;image=https://cdn0.iconfinder.com/data/icons/communication-technology/500/code_brackets-128.png" parent="1" vertex="1">
          <mxGeometry x="1163" y="243.2" width="65" height="65" as="geometry" />
        </mxCell>
        <mxCell id="BDU4VzLzIB2JPN8p994O-59" value="" style="shape=flexArrow;endArrow=classic;html=1;rounded=0;" parent="1" edge="1">
          <mxGeometry width="50" height="50" relative="1" as="geometry">
            <mxPoint x="1101" y="280.7" as="sourcePoint" />
            <mxPoint x="1151" y="280.7" as="targetPoint" />
          </mxGeometry>
        </mxCell>
        <mxCell id="BDU4VzLzIB2JPN8p994O-60" value="Locust CSV Results" style="shape=image;verticalLabelPosition=bottom;labelBackgroundColor=default;verticalAlign=top;aspect=fixed;imageAspect=0;image=data:image/png,iVBORw0KGgoAAAANSUhEUgAAAOEAAADhCAMAAAAJbSJIAAAAflBMVEX///8AAADMzMw+Pj7i4uIeHh7u7u7CwsK0tLTS0tJdXV1ra2vPz8/8/Pw1NTXGxsb09PTY2Nh8fHyfn5+srKxycnJjY2NTU1Pp6emTk5O6urqHh4c4ODgXFxcxMTGjo6MmJiZHR0dMTEx5eXkjIyMRERGYmJgaGhqDg4OPj49o90J3AAAH10lEQVR4nO2de3+qPAzHBdm8DRXvl03nOXPH5/2/wUedU5KmpWBI3T75/guU/kibphfaRkNRFEVRFEVRFEVRFEVRHo7nyaj58VQL0zi0uCPZLKqTbhpa4KhWfUc+wkpM+3ULjKJNSInpR/0Cw0p8lRAYRf1gAtcyAo8SA1kxkRIYzIr1NhOQ1xBWTAUFHiUGULgSVRjCimJ+JpjEubBC+YLalFYobkWosPPMx3BikxhSYcKZdNtmRdmmP4RC2aY/iELRuhhGoWRdDKRQ0IqhFMpJDKZQTGI4hVKNRkCFQo2GmMLuJpAVxRRO439hrCimsNcZEGN6AlYUVPgyoKxYu0RBhfHL4CmAREmFYSSKKgwiUVZhCInCCmPa3XC+FiOtUN6K4grFrSivUNqKARRarFiXxBAKZa0YRKGoxDAKJSUGUkhLrGWuP5TCo8Q3woqc778QTKGYFcMppK244czBmYAKhdxNSIUWKzJLDKpQxIphFVo8KqtEudHErEORxe81SxRTuJl1SWZ/TIWsdTHkqL4DRokPqjB6YpP4qAqjOVc2HlZh1GHKxuMqHDFl43EVNpmyoQrvoPXrFQ5/vcLG9NcrvM+IP0FhI/v1ChvDO36o+hkKG430peXLYPIjFZZh8esVJqqwEqpQElVYDVUoiSqshiqURBVWQxVKogqroQolUYXVUIWSqMJqqEJJVGE1VKEkqrAav18h3J9mwZRqNeC8BdeCmmU+0TemRKuyz2fmkynR53yiY6ZEqzLOZ+aZK9XcRlGhTQiM+B9fqrcN28LWwhO3mjjjTHb7lWZvyJloRYa9r8xsmdONt+PVI+g7MVyNt4+wZ62iKIqiKIqiKIqiKMpPZbhIkmTxKKM9boaduNWKsxKZzT5vP2Q31wWDWotBKyvKQdzi+oPUIBvfJjL282VRVs7ZGRt/1M8nVpEvu3PSrtHCpMs9JHwl3e5xXqNlgSnTpfHImRE9vHwdYW9a073+mPnGPhP2Sef14Ppv/IV+5sSMmHjY3i7vLCnGt1v2vBtkOP5pnVgfsnyUC8ZED5gGatNJ5ovRgU3dsbB1XVmdW4rUf06BRzuh58Dc0juZJDwzhU9g4YFBZJVwW/AMlAg/Izl2vwO3+Hg6Lxy1yfGuQfFTaCIXOl1qegl96haTwDjywCiofqcMgXYNbWNCuCL0R+YLj0C/f1mn+LGiSvjFOv8IOrZnaWQFfzWeEOk58gO5bs/fmMGKCvwtjbxs4XWmxQq+Z+mgOMp2igyi73rXCucFRUcDFoEeDpF8HbU1EAF0J6jRxa0+8nj/WATCNSwuoA0JP/PeJDZdR+06uooaIdQo8ywNIVv6XW9m7k8F62EHXZ1lp+vpov3X9RT2NXCHFuwRWPwMzmh02pTr61IMPfdf+CAqb7nADsTiuCbh0AJ8AOSdDe9dCcOEu1yfIMmfbok+KKy+sEItrj0ww5XgU9BALwplhSWgMWrhGl6fWl8HvzdeodU6+6G/RA8KBULvuUvoGD+elXu4c2f0Oi+FcWZUCajQLFBpYundoT32clHLDl6x9D1KgvwJFSnG22WbCK9QI/Mx9nULY/hg93qhMByogrPeuzEb/D9br1VjOBa6fj0Ukq5diVTNZplyQQaz/UOr+CP14DPfwSluYHmGMNDLSj1LKTybclyQN0tprCckhQNPZqjvwrFF0uvWWSnRCcuXFqWWkBQVjHLtj7vP1XUsviODUxSS7u/RdQM5mpIjWwUHCfftY7roznOpriUkRWYo28IWdhBHtk9GBKe1hKQ4vihdtwvHBv5Zmg8cSaU1haQ4TOoWP4AoHt+xVG0UnE7qCUkbeNu/8go9Ti2nrWgEpygkZTvhEvov2zC7ixT1Bg0sW6xjk6EBA56QtIFN8FQpjazgUGg6+ELBaR89dI8oAKrxFX/hSA5OiaRXdPthnpD0DEzY7K76snK0jXSk5Nw0kvG/Dxg/VXA1V9L4QJyOc+KDvN/V0rDtkdwwmt47w/lkSw5r0RbBVS8HT0j6Bdol9v4/cVKivNKzK/bpSqaQ9JIhlDhdE8vFq+kEjVPQIaZ9Xof3Bzr8xc1yOjm1BqNy5RcWVkunDNWQG7wLVlAsEe1Ri7H4ri70fHN7NFsTdodDB5Y1FbbB9t6dkjDGC0C/ru188Xev3NAIG0hbx9oyr8427XvBnJcZXc2YgDwYOm4B2xxZHiZoq1f0FDL7STpUhZ9P4iRbLTfuV4OiOM19+WwHH7Q6f+J0EsaQlM6oE9Su4cu9ZTuOV58Ho6GzeqkxvvNEDad2EYdJ08CRF/8N161vpoJTxpD0SnEfj1RoWexl4uiuE8FpLb8ib833kMCX+61TiJwxmBmccoakOfw2h3+HD/l+l3fzfTeMOssZkubxmpJHTs53u3VnlwwHp/VtCFDQTz9hROV+SzjcxQ63VTXu6VAwukv5Cz8PVRBkrkvdfRcFa06oXTg8FsMV9jhhcMo1SkrTIY54+2ZPD9AvCgtqcZcE1A/ukBRj9f9ra5zhdqhdj0KXL+v3jKL4kS7NZd7HouMaghs6xtn8Isxb6PZW7yHyFwaobfxjX3R/YUgHN0/2ldOI78DYtg6Zn2yynjf7m9f5aDzw+6rxGndD1mVqVDqZb5qj2v6vYGIYt9fTXq83PXy2Oz/jvxlFURRFURRFURRFURRFURRFUUT5H8Nabp7i5fiDAAAAAElFTkSuQmCC;" parent="1" vertex="1">
          <mxGeometry x="1174" y="360.7" width="40" height="40" as="geometry" />
        </mxCell>
        <mxCell id="BDU4VzLzIB2JPN8p994O-61" value="" style="shape=flexArrow;endArrow=classic;html=1;rounded=0;" parent="1" edge="1">
          <mxGeometry width="50" height="50" relative="1" as="geometry">
            <mxPoint x="1101" y="380.7" as="sourcePoint" />
            <mxPoint x="1151" y="380.7" as="targetPoint" />
          </mxGeometry>
        </mxCell>
        <mxCell id="BDU4VzLzIB2JPN8p994O-62" style="edgeStyle=orthogonalEdgeStyle;rounded=0;orthogonalLoop=1;jettySize=auto;html=1;" parent="1" edge="1">
          <mxGeometry relative="1" as="geometry">
            <mxPoint x="1090" y="245.7" as="sourcePoint" />
            <mxPoint x="1090" y="265.7" as="targetPoint" />
          </mxGeometry>
        </mxCell>
      </root>
    </mxGraphModel>
  </diagram>
  <diagram id="FeNCK88Gd_KP0XgWfw5B" name="Página-2">
    <mxGraphModel dx="880" dy="434" grid="1" gridSize="10" guides="1" tooltips="1" connect="1" arrows="1" fold="1" page="1" pageScale="1" pageWidth="827" pageHeight="1169" math="0" shadow="0">
      <root>
        <mxCell id="0" />
        <mxCell id="1" parent="0" />
        <mxCell id="ynuKMLX35KaSqNRnhM3T-1" style="edgeStyle=orthogonalEdgeStyle;rounded=0;orthogonalLoop=1;jettySize=auto;html=1;entryX=0.5;entryY=0;entryDx=0;entryDy=0;" parent="1" source="ynuKMLX35KaSqNRnhM3T-2" target="ynuKMLX35KaSqNRnhM3T-3" edge="1">
          <mxGeometry relative="1" as="geometry" />
        </mxCell>
        <mxCell id="ynuKMLX35KaSqNRnhM3T-2" value="" style="verticalLabelPosition=bottom;html=1;verticalAlign=top;align=center;strokeColor=none;fillColor=#00BEF2;shape=mxgraph.azure.laptop;pointerEvents=1;" parent="1" vertex="1">
          <mxGeometry x="350" y="30" width="90" height="60" as="geometry" />
        </mxCell>
        <mxCell id="ynuKMLX35KaSqNRnhM3T-3" value="Shell Script" style="rounded=1;whiteSpace=wrap;html=1;verticalAlign=bottom;fontSize=15;" parent="1" vertex="1">
          <mxGeometry x="355" y="130" width="80" height="90" as="geometry" />
        </mxCell>
        <mxCell id="ynuKMLX35KaSqNRnhM3T-4" value="" style="shape=image;html=1;verticalAlign=top;verticalLabelPosition=bottom;labelBackgroundColor=#ffffff;imageAspect=0;aspect=fixed;image=https://cdn2.iconfinder.com/data/icons/essential-web-5/50/script-programming-coding-add-on-128.png" parent="1" vertex="1">
          <mxGeometry x="374.5" y="150" width="41" height="41" as="geometry" />
        </mxCell>
        <mxCell id="pKLPmaTWMpeGWHQEty76-1" value="" style="rounded=1;whiteSpace=wrap;html=1;verticalAlign=bottom;align=left;labelPosition=center;verticalLabelPosition=top;" parent="1" vertex="1">
          <mxGeometry x="170" y="250" width="470" height="480" as="geometry" />
        </mxCell>
        <mxCell id="pKLPmaTWMpeGWHQEty76-2" value="Amazon EKS" style="sketch=0;outlineConnect=0;fontColor=#232F3E;gradientColor=none;strokeColor=#ffffff;fillColor=#232F3E;dashed=0;verticalLabelPosition=middle;verticalAlign=bottom;align=center;html=1;whiteSpace=wrap;fontSize=14;fontStyle=1;spacing=3;shape=mxgraph.aws4.productIcon;prIcon=mxgraph.aws4.eks;" parent="1" vertex="1">
          <mxGeometry x="220" y="260" width="46" height="80" as="geometry" />
        </mxCell>
        <mxCell id="mIPZNAXwj-B8DPMDP-bw-7" style="edgeStyle=orthogonalEdgeStyle;rounded=0;orthogonalLoop=1;jettySize=auto;html=1;exitX=0.5;exitY=1;exitDx=0;exitDy=0;" parent="1" source="B8JPMIcKRJweUhrXn3y9-1" edge="1">
          <mxGeometry relative="1" as="geometry">
            <mxPoint x="395" y="430" as="targetPoint" />
          </mxGeometry>
        </mxCell>
        <mxCell id="B8JPMIcKRJweUhrXn3y9-1" value="Load Test Node" style="rounded=1;whiteSpace=wrap;html=1;labelPosition=center;verticalLabelPosition=top;align=left;verticalAlign=bottom;fontSize=15;" parent="1" vertex="1">
          <mxGeometry x="310" y="290" width="170" height="110" as="geometry" />
        </mxCell>
        <mxCell id="B8JPMIcKRJweUhrXn3y9-2" value="Locust Pods" style="shape=image;verticalLabelPosition=bottom;labelBackgroundColor=default;verticalAlign=top;aspect=fixed;imageAspect=0;image=data:image/jpeg,/9j/4AAQSkZJRgABAQAAAQABAAD/2wCEAAkGBwgHBgkIBwgKCgkLDRYPDQwMDRsUFRAWIB0iIiAdHx8kKDQsJCYxJx8fLT0tMTU3Ojo6Iys/RD84QzQ5OjcBCgoKDQwNGg8PGjclHyU3Nzc3Nzc3Nzc3Nzc3Nzc3Nzc3Nzc3Nzc3Nzc3Nzc3Nzc3Nzc3Nzc3Nzc3Nzc3Nzc3N//AABEIAIIAggMBIgACEQEDEQH/xAAcAAABBQEBAQAAAAAAAAAAAAAAAwQFBgcCAQj/xAA9EAACAQQAAwQHBgQFBQEAAAABAgMABAURBiExEkFRYQcTIjJxgZEUQlJiocEzcpKxIySC0eEVc7LS8Aj/xAAaAQACAwEBAAAAAAAAAAAAAAADBAACBQEG/8QAJREAAwACAwEAAQMFAAAAAAAAAAECAxEEEiExYSIjQRMUMlGx/9oADAMBAAIRAxEAPwDcaKKKhAorwnWye6oPK55YXa3slE0497n7KfE/tVpl18B5MsY1umS89xFboXmdUUdSx0BUJc8Twc1soZLg/iHJfqf+ahZlkuX9ZeymZ+oB91fgK8dwOlF6TP0zb5mSv8PBzPnMtL7ht7ceQLn9hTCa9yrb3lJF/kiQftXMktNpJa47lAW8lfWD32YQ7jzNxv8ANHGf2pMcTcTWjbW6srpO9Zrcofqp/auSxY6A2fKkJY2B0ylT4EUKsiZaXkn4yWs/SasJCZ3EXFsB1ntW+0Rj4gAMPoaueHzeMzdt9oxV7BdR95icHsnwI7j5Gsqmtu2OYqFuMa9tdi+sJpbO9T3bi3PZYeR7iPI8qp2Q1HLa8tH0BRWW8MekyW3lSx4vCR79mPJRrqM+Ui/cP5hy+Faejq6hkYMrDYIOwRXd7HopWto7ooorpYKKKKhArwnXM0VAcTZR4FSytG1czDr+Be9v9vOrTPZ6BZss4odMb5vMSXEz2Vg5ULylmX7vkPP+1RscaQp2UGh/91rmJY7eNI1Ot9N9Se+kZ7jsSRofvkjfy3RnShaRi1dZa7UKSSU1kkr2R6bOxNJ3mO7SPHfddWttJdPpPdHvN3Cu7GzkvJuwvJRzZvAVY4rVIYxFEulFDTdBccuvRna2aRDSL8z30yy3ZkuFRB7g0T51M3bfZrc6/iMPZqHjgaWTsqO0xrtPXhe/PEMUtGlYIikse4VIxYK3VP8AM+23gOgqWtrRLVO4uepokO6tK19OqEvpRuKOHoY4/WwKTG3JlPPVR/B3FtzwbcLZZFpJsCx1z9prPzXvKeI7u7vq85SES2Mykd2x8aoeRsVcHa7qrfV+FP6jw3ufhuEMqTRJLE6vG4DK6nYYHoQaUrI/RhxG+JyC8M5CQmznJ/6dIx/hv1MW/A9V+Y8K1yjJ7WzVx2rlUgooorpcQu50traSeVgqIpYk9wFUOCV7qWS/nBElwdqD9xPuj9/nU1x1das7ewU6N3Jp/wCQc2/YfOoMuAOXIUWH1nZi8/J2yqF/BzkGYW7PHzeP21HjrupjkrhfskN2h9hZI33+UkA/oaeltmoFlLWOVxfPtwKzReaMCy/Q7Hypa8mykImmryOFpZFRRtmOgK4xsovLC2uV6SxK/wBRViwVnza4YeS0rp1Wjkw6vQ7srNbS3CKPaPNj4mnKxhQXbkANk0sqbNNr9i2oIwSfvUx8Rodeq8Iu4L3VweyOZ5KPAU9trdLZPFz1NKxQLAp72PfXhO6olr1glOnt/Tx+dIuKVNJPVtkY3uF3byj8pqpXMQINW+4PZtpD+U1WJlqlsVzfSpZqyMiExu0cikNHIvVHB2rDzB1WwcC588ScOW19KAl0u4bqMfdlXk3yPIjyIrNchGCpp36KcicfxXeYpm/wcjD66NfCWPk31Uj+mrYq90G4GXVvG/5NgoryimDXM94rufXcVGPqtrbKP9TsSf0UUyMnnTTMXHa4qzJJ92ZEHyjX/euFl3VMl6Wjz2T9WWn+R+rbqMyzfYslYZE/wmb7Lcfyv7p+Ta+tPInqlcYcXJNHc4qyijkhPsSTPs7I/DrwPf5UrG6rwPhx1VeFx4L22HNs3v2lxNbEeHZcgfpqtEtYhFAiAdBzr574e49vMNcTvJaRXSXEolkHaKHtaAJB59deHWtm4P43w/FAEdq7295rZtZ9Bv8ASejfL6UecbTbHYw9abLK20TlzY9BSSwiIE9XPU08KaG9c6Qk61ZoK5GrjdJFaXYc6TahsE0ItSTUq9JkbNV2DaGeTfsWZH4jqq7MetTGZmBcRg+71+NQU70C69E8vtEden2TVet8guL4swd0Dpkv4wfJH9hv0Y1M5GdYo2dzoAVn2buXMxuvvRsHUeGuddx1ukc46/dTPrGik4H9ZBG/4lB/SitA3TGM/IYOL85Gdj/Mq31jWuIp/OmXpdabFcemaIlY7u1jk59GILKR+g+tRmPy0c4Ab2G8D0pLkNpmNmxOLb/2WPIXDLib1kbTLbyEEdQeyayN3A6arTpy1xYXEEZHaliZF2eWyNCq3g+DrsZS2lyX2drWNu06q/a7Wug1rpvVc4+WZl7YzxbmJe2U8vVv9G+YgxXENpPc69Wr+0fAeNPOL+B1WGTIYJdBQXltd8td5T/1+nhWexztGwZSQR3im4yK1tDsWrW5Ps6KWOeNXidWjcbVlOwRSUq1gHAPpLuMR2bS9Yy2v4Sea/CtuwfEGOzkAaxuEdvw79ofKrNeFqW0LyDVIsaczL1pqwpeheloSc0jPKIYmdvl50rKyRoWc6AqByN761uXJR0FBu+qAW+qGV3KWYsTzJ3UVdTBFJJpa6uAN6qGu5C3U0m6EqIvLTtL16Duqp5dDJG6L1bkPnVkvjvdRthaNkOIMZZoNma8iQjy7Y3+m6Nx1ui3HX7h9O2q9i1hU9Qij9KKVAGqK1ja0ZR/+gMSZcRj8zENmzmMUmvwSa0f6lH9VZDYzbA519TcQ4mHOYS8xdz/AA7mJoye9SRyYeYOj8q+UJba5xORuMffp6u5t5DHIvgR+3fS3IjtIvycfaS22F0y60xqetbzpsVTbGbWudTlrNyHOsety9GXvRa7e6B5dx7qz6XhWC+mymKtuxDf2cnrrRugmgfmEPwPLfnVphn6c6jstKbTPYjIxa7byG0lUdWRuY+hG6Y4+Vy2kGwZWm0jLriKa1neGdGjljPZZGGiDT3HZzIYyZJ7K6khljIZHU9CK0fi/huHPxevgCx36D2X7pB4N+xrKJ7aW2neGeNo5UbssrDmDWlizTlXhpYc05V59Povg30gDiPGCRigvIgBcQnuP4h+U1Ny5qT7qovmK+Y8TkLvE30d5YyGOVPow7wR3g1q2C4ysswixyMLa774ZDoMfynv/vS+eMk+z8F+RNx7PwuV3kJJTt3JqMuJye+kZJSfjSDMTSLbbM95GziaTdMZ23Tpx1ppMNCrTGzhEXp5Gpv0S4s5DjRbxlJix8TSb/OwKr+hY/KoDIuADz0BWyeivAthuHBLcJ2bq9b18gPVQfdX5Dn8Sad4+P8AVsZ4k9q2XPVFe0U6awVjfpz4OaVBxTjo9vCoS+RR7yDpJ8uh8teFbJXEkaSIySKGVhplI2CPA1xraONbR8k2E2wKnrSXpzqU9JHAUvCd8+UxsbPhJn6AbNqx+6fy76Hu3rw3A2MgYKazuRh0zJ5OJy9lht22KZXO7riawg3tbWJ7hh5nSindpogc6TwievymUvPu+tECHyQc/wBTQseJrb/Avj87V+P+k5GSdaqH4o4ZizUAmh7Md8i+w56OPwt/v3VPRR04Ef0ruOKitoHF1FdpMjxnDc1/NNarPHBewn2redSpI8iN7+ldXPDtxYXUcGS7MMTnQnC9tP8An4da0fN4JMh2LmBvU30XOOUct67jXuNuhkInsslEouU9mSN15P5gVoLJT9Rof3dNdl8/kRwOLhsLNfUXUt0rjYkZ9rr8o6AVIFKjjibjFyNLiXLwk7e2fn9KeWl/BdAqNpMvvRN1BoFYNvsvRW1t9k9hIuqjbxwBT+6mVAd6plisVe8S5L7FYDsqujPORtYVP9z4CrTj0CW7fVDngThxuI84JZ03j7Nw02xykfqE/sT5fGtzVQo0BUfg8Ta4XGw2NlH2Ioh82PeT4k1I0zE9Vo28GFY50FFFFWDhRRRUIJ3EMVxC8U6LJE6lXRhsMD1BFY5xj6L7nHSyZDhRDPak9p8fv24/+2e8flPPw30rZ6K45VLTK3CtaZ80WF4AxRgyup06OCrKfAg8walcLGlpE0SuDGXZ1315nZ34862DiPg3DcRe3e23YuQNLcwnsSL8+/4HYqh5H0b5qwJbF3UV/EPdSX/CkHz90/pQP6TXz4ZWbiXG+nwbQSL406Rwagp7fM446vsTfQ66sIS6/wBS7FcrmoYxqSQIfB+R/WuqEIUrn6ixdsCmGUs0uuzLEwjuo+aSfsai2zsDHSzI3kDulIZ768IWysLycnp6u3cj661V1pPaOxV73KHFllxKWgutR3UfvKfveYpjm2tZwZWb1Uq9JVOiPj41Jr6PeIs20csqx4tlPKaVg7gfyr+5FXzAej7FYtknuy+Qu15+tnA7IPiEHIfqfOr/AJkcji5LapeGecJcLZ/iN93oNpjl6XZXTyj8in/yPL41seFw9lhbJLTHwiKJPDmWPeSe8+dPlUKABXVTRpYsEY/UvQooorocKKKKhAoooqECiiioQ8oNFFQgEDwFN5IYn9+JG+Kg0UV1A7OVtoFPswxj4IKcIBroK8orrK4zsUCiiqhj2iiioQKKKKhAoooqEP/Z;fontSize=15;" parent="1" vertex="1">
          <mxGeometry x="380" y="327.5" width="35" height="35" as="geometry" />
        </mxCell>
        <mxCell id="B8JPMIcKRJweUhrXn3y9-3" value="" style="sketch=0;html=1;dashed=0;whitespace=wrap;fillColor=#2875E2;strokeColor=#ffffff;points=[[0.005,0.63,0],[0.1,0.2,0],[0.9,0.2,0],[0.5,0,0],[0.995,0.63,0],[0.72,0.99,0],[0.5,1,0],[0.28,0.99,0]];verticalLabelPosition=bottom;align=center;verticalAlign=top;shape=mxgraph.kubernetes.icon;prIcon=node" parent="1" vertex="1">
          <mxGeometry x="320" y="292.5" width="30" height="30" as="geometry" />
        </mxCell>
        <mxCell id="4Gzamj6HgPZRGtuEVf3x-3" style="edgeStyle=orthogonalEdgeStyle;rounded=0;orthogonalLoop=1;jettySize=auto;html=1;exitX=0.5;exitY=1;exitDx=0;exitDy=0;" parent="1" source="ynuKMLX35KaSqNRnhM3T-3" target="B8JPMIcKRJweUhrXn3y9-1" edge="1">
          <mxGeometry relative="1" as="geometry" />
        </mxCell>
        <mxCell id="mIPZNAXwj-B8DPMDP-bw-1" value="" style="group;fontSize=15;" parent="1" vertex="1" connectable="0">
          <mxGeometry x="290" y="430" width="230" height="110" as="geometry" />
        </mxCell>
        <mxCell id="mIPZNAXwj-B8DPMDP-bw-2" value="Scenario Node" style="rounded=1;whiteSpace=wrap;html=1;labelPosition=center;verticalLabelPosition=top;align=left;verticalAlign=bottom;fillColor=#d5e8d4;strokeColor=#82b366;fontSize=15;" parent="mIPZNAXwj-B8DPMDP-bw-1" vertex="1">
          <mxGeometry width="230" height="110" as="geometry" />
        </mxCell>
        <mxCell id="mIPZNAXwj-B8DPMDP-bw-3" value="" style="sketch=0;html=1;dashed=0;whitespace=wrap;fillColor=#2875E2;strokeColor=#ffffff;points=[[0.005,0.63,0],[0.1,0.2,0],[0.9,0.2,0],[0.5,0,0],[0.995,0.63,0],[0.72,0.99,0],[0.5,1,0],[0.28,0.99,0]];verticalLabelPosition=bottom;align=center;verticalAlign=top;shape=mxgraph.kubernetes.icon;prIcon=node" parent="mIPZNAXwj-B8DPMDP-bw-1" vertex="1">
          <mxGeometry x="10" y="2.5" width="30" height="30" as="geometry" />
        </mxCell>
        <mxCell id="mIPZNAXwj-B8DPMDP-bw-4" value="" style="shape=image;html=1;verticalAlign=top;verticalLabelPosition=bottom;labelBackgroundColor=#ffffff;imageAspect=0;aspect=fixed;image=https://cdn1.iconfinder.com/data/icons/social-media-2106/24/social_media_social_media_logo_docker-128.png" parent="mIPZNAXwj-B8DPMDP-bw-1" vertex="1">
          <mxGeometry x="20" y="45" width="49.5" height="49.5" as="geometry" />
        </mxCell>
        <mxCell id="mIPZNAXwj-B8DPMDP-bw-5" value="" style="shape=image;html=1;verticalAlign=top;verticalLabelPosition=bottom;labelBackgroundColor=#ffffff;imageAspect=0;aspect=fixed;image=https://cdn1.iconfinder.com/data/icons/social-media-2106/24/social_media_social_media_logo_docker-128.png" parent="mIPZNAXwj-B8DPMDP-bw-1" vertex="1">
          <mxGeometry x="90" y="45" width="49.5" height="49.5" as="geometry" />
        </mxCell>
        <mxCell id="mIPZNAXwj-B8DPMDP-bw-6" value="" style="shape=image;html=1;verticalAlign=top;verticalLabelPosition=bottom;labelBackgroundColor=#ffffff;imageAspect=0;aspect=fixed;image=https://cdn1.iconfinder.com/data/icons/social-media-2106/24/social_media_social_media_logo_docker-128.png" parent="mIPZNAXwj-B8DPMDP-bw-1" vertex="1">
          <mxGeometry x="160" y="45" width="49.5" height="49.5" as="geometry" />
        </mxCell>
        <mxCell id="kePcl1x98MUpWLDZVXkW-1" value="" style="group;fontSize=15;" parent="1" vertex="1" connectable="0">
          <mxGeometry x="200" y="585" width="150" height="110" as="geometry" />
        </mxCell>
        <mxCell id="kePcl1x98MUpWLDZVXkW-2" value="Monitoring Node" style="rounded=1;whiteSpace=wrap;html=1;labelPosition=center;verticalLabelPosition=top;align=left;verticalAlign=bottom;fontSize=15;" parent="kePcl1x98MUpWLDZVXkW-1" vertex="1">
          <mxGeometry width="150" height="110" as="geometry" />
        </mxCell>
        <mxCell id="kePcl1x98MUpWLDZVXkW-3" value="" style="sketch=0;html=1;dashed=0;whitespace=wrap;fillColor=#2875E2;strokeColor=#ffffff;points=[[0.005,0.63,0],[0.1,0.2,0],[0.9,0.2,0],[0.5,0,0],[0.995,0.63,0],[0.72,0.99,0],[0.5,1,0],[0.28,0.99,0]];verticalLabelPosition=bottom;align=center;verticalAlign=top;shape=mxgraph.kubernetes.icon;prIcon=node" parent="kePcl1x98MUpWLDZVXkW-1" vertex="1">
          <mxGeometry x="10" y="2.5" width="30" height="30" as="geometry" />
        </mxCell>
        <mxCell id="kePcl1x98MUpWLDZVXkW-4" value="Prometheus Pods" style="shape=image;verticalLabelPosition=bottom;labelBackgroundColor=default;verticalAlign=top;aspect=fixed;imageAspect=0;image=data:image/png,iVBORw0KGgoAAAANSUhEUgAAAIQAAACDCAMAAAB7n0MtAAAAdVBMVEX////mUizkPQDlTCHlRRTysqftjn364+DmUCnkQADmTiXlSRz2y8PlRxj2ycLlQQn87+3++Pf76OX1w7vnVzTxq5/pcVjnXDzwpJbuk4L30cvjMgDzua/419L53NjoYUPqd1/shnPoZ0vrf2vvno/pbFLiGQChpfYgAAAITklEQVR4nL1ca4OyLBBNpCSQvFSW1moXe///T3zFW94GRqvnfNl2F/U4DMOZAVqtliPwQyct4IR+8MFtFsJ33OPmlZ0OlsU455Z1OGWv+9F1/H9EIEjyZ+YRKjhTsBTUB25Tsj09493PjZIeowspHm8BYFxsL6/z3y8ZMCE59Pw3uBRWnv6CQbCPbApaYGQRKqPrtx0kOB8IwgY9e3g8/yaNML5IyAhM2qA5BLk7X6Lgx0yC7ysOxzvIovi3HYff4LC2NK4gb/7qoPUUyc4fU/g7bTXPELfVak91HJSPWu5HFPzY07kjZ0WbM9xXTTN6/8BD/zL9W4pd0WgjTCSKPjkkSzkcL/pRad9UqxhBwmIkX0TBjzzDnb0yKh4NPlGDnhZ0SXowvSG/lVPVDmOJAvb8LnGFMUDSY2UxeDobkKbXeRzWxHznSx2GboNgBbMns0LGGdHPTNSN99venw8RzMKb4Z5HYuZg8ahu7Z+6VrPdh8aINEbbAcPBsu9N+7jTH+QaXHRXeRskB9PQrEm0L+W8H1sw2+sv91C2uG41t6Dv/hbvu729gPjGMO4dzRwSDQeWXd/RQ7ydbN08V8b9zplmsTdxSG3d2Lw4q2fDQnbeqCHOHQQJdRctgpM2RnlFuHnVD6Hr92X1JFZOJrkxgrKDXujc9XdQXZDWNGXHqknVH0QJh6s5xoinjsPVMDiFGmB59UTRTS7K2MDKOeoPMcB1QSs16ZNyRPjVGLS7s2I5lVaRQx8nGhbwZPYy+RQtg3+pbBnrXhmq16/dPsPkRwcoWTQrg+oxpapso3aJQIWKS2Ubs95TrwN0SGi2Yz1xqtfuDg71AtLiWfUxQQkMoEOeRjOy2ogvPrpJSt4h9IQRGPwxxWFn9mp+b/uNnQZj/WLJxjZH1OQzJXEChD81XeB6hbYbXH/isrGNr0+HajAyJrFG6JhL7dJOFTt7uNuiHbM5SvvKsW8KM/vG85SM8Yba+Uzt9rOPuJka5MN7YAzhtQPiIe6D6wsF0PE0XBowHKYBohuZ1fpidBkVhPakq5kOmGLGcCLbIwJ+lXCVeGarIRLSFSumLLkC7esbjUJuQXZt8/tuNUS67WmVF8oUvHvJH0bid/K4iWgX0t4fXZRY9rovY5ARJYReoQZWz00ClCnsjn8HmEyOGIqTWV+0YYZbKYwb7BHzXr//JhCN4jgC71G/ehq16WR86yMehB5dPa1FJ/pjnEiYEvv1gARqlDKr6cQEQcLYG6u/AYkQNY21A3uDMJytFcgKwVCwPVDj41ZfjRlNo1nTDFwxq5aqDqbz6Pyq/RWlberMASGpiix0ftkLk4C0QgljtpGQQsDRpfct7GryxbiE2S/HCFEFNXZSbQOMOBYLaqE+SnVbl9JqmKYUUdkYkchQJIgKVwkqYVobnzkmoaugvVFmdYYa089JSJXfHlGW+F13lMMDFdgMimYSoYUiwdXAQ025S4aogwpWVZ3+hpln+Gv+4jNmcm5ujXIfxuavLeYYZ6tnBFxIMRcfR0BJ3VrFH1BN5zsFTtSoPKwggWpZsJjrFIhSYk0iRJOQc8MVpn5WkUB3h8VP8zg4KMnfkIAckxNqd1+GzHPNXvgpt5kAzylHB+DELEuu8U0UTOqL2WmOV/w1hlB7S4h1i6+Qo7KHDwcrkqjtQ+nx+eBeWXmBSo9TKOuaFpeenUXx3lGbj0IgdvEogAV/OyiDdB8fKJU2xW+VOXu2lPSV79NWm56BOapUjtDSwDs5Kpkkx032H1btuv894mufMijgyrokmD7T0SpmgN2QkY7dB6wFlWtpsKjxkI9EAawFlStIcClaLlAyEFwwfm5VtUYT4+lX9sOUgMt5VdEeVmHjauVSaOo2VXVZU7mjizeA9BGAO6Saar9mdZ6J7+zm05SCavWqk2Hf6RBdfi6rmkOom3NnTluTcHTFQbsKiYFO6jL7841rukJ3u56nVaTwuh0WT11iI5qyfKrV5mpX2SeItTLPa3ejwQOobLdZf4BYK/w7qw2GTNCmH8Bw67eId5Fbpb6PzvLFCpe6fh+9YIjZ0vQL2N1k39HmCJJ8AO3rkV51VLdELc+hsxihbt2D95fSEk2qMnfLXB+uZt4YZtm6+XxBveqNHUyCZwG67c9IbEcmhmeZX5FgQ0MUjUEH+hUJMuFrw22VvyYxmeanUOsfkZDjVeYVvPf5NyQgheBNzyA/IcE4kNcCi4ifBatkmsSUV1Z4TgoQHsWb5ZgWsPYLZA3syOH2B5jkMN4N07UdrhL8Mag2kfg3wsK0Z/lmKEjbWwQM9+CwQ1QIHtqVB3uT7Nyd67q78kf5qfzFrT+pH4m+tM7NxeGQ6fTmuIQ0Be0GDsYQ9bf0osscUQmyNoXYTobrIRLNQSPzDgYFXXJ7QR4AcjUZGWbhXtOjDL9usoMPVmCWitewmJqzAyIBWTBqdG14Cx27zKp2pBY0UoXxWAI4QLmceYQzzCAP14dczbYJkc0+RhpAh58MtRsfymvpa0lV9Ag4BiMaFg4Dlk+2C9aYFf6AU1hMgD3iAidrhbW4AOc/pxUfo/fJMRLk03GO0eGeuFnYA5UWIY4jGsGaT88Z4jOVWtw5ppODlUnvnnRez082dDrQcrL5/BRvGlGgn+npFa/3SbK7xlEGmIzR13fq43voEDPjwtsSsvWgk+bcg314Po0XweyyGHXE46NsYYTkOeNUeQlq39yvn/h3ckuidqYrCCl/c8a+CEWx1H3RQNMLgnib77nCBNI8YkTyadnCGC9YRvmX1os0CMIkj06W8KiwazLqex8E9YR1euVu+O++DyNMdut8c3tkB/UNGI/bPS8ihrP0+f8Dnx2GZBPDmvsAAAAASUVORK5CYII=;fontSize=15;" parent="kePcl1x98MUpWLDZVXkW-1" vertex="1">
          <mxGeometry x="49.809999999999945" y="32.5" width="50.38" height="50" as="geometry" />
        </mxCell>
        <mxCell id="_MScuo_bcrqL3sZ4RQrd-1" value="" style="group;fontSize=13;" parent="1" vertex="1" connectable="0">
          <mxGeometry x="465" y="585" width="150" height="110" as="geometry" />
        </mxCell>
        <mxCell id="_MScuo_bcrqL3sZ4RQrd-2" value="Cost Node" style="rounded=1;whiteSpace=wrap;html=1;labelPosition=center;verticalLabelPosition=top;align=left;verticalAlign=bottom;fontSize=15;" parent="_MScuo_bcrqL3sZ4RQrd-1" vertex="1">
          <mxGeometry width="150" height="110" as="geometry" />
        </mxCell>
        <mxCell id="_MScuo_bcrqL3sZ4RQrd-3" value="" style="sketch=0;html=1;dashed=0;whitespace=wrap;fillColor=#2875E2;strokeColor=#ffffff;points=[[0.005,0.63,0],[0.1,0.2,0],[0.9,0.2,0],[0.5,0,0],[0.995,0.63,0],[0.72,0.99,0],[0.5,1,0],[0.28,0.99,0]];verticalLabelPosition=bottom;align=center;verticalAlign=top;shape=mxgraph.kubernetes.icon;prIcon=node;fontStyle=1" parent="_MScuo_bcrqL3sZ4RQrd-1" vertex="1">
          <mxGeometry x="10" width="30" height="30" as="geometry" />
        </mxCell>
        <mxCell id="_MScuo_bcrqL3sZ4RQrd-4" value="Kubecost Pods" style="shape=image;verticalLabelPosition=bottom;labelBackgroundColor=default;verticalAlign=top;aspect=fixed;imageAspect=0;image=data:image/jpeg,/9j/4AAQSkZJRgABAQAAAQABAAD/2wCEAAkGBwgHBgkIBwgKCgkLDRYPDQwMDRsUFRAWIB0iIiAdHx8kKDQsJCYxJx8fLT0tMTU3Ojo6Iys/RD84QzQ5OjcBCgoKDQwNGg8PGjclHyU3Nzc3Nzc3Nzc3Nzc3Nzc3Nzc3Nzc3Nzc3Nzc3Nzc3Nzc3Nzc3Nzc3Nzc3Nzc3Nzc3N//AABEIAIIAggMBEQACEQEDEQH/xAAbAAEAAgMBAQAAAAAAAAAAAAAABQYBAwQCB//EADsQAAEDAgMEBQwBAwUBAAAAAAEAAgMEEQUhMQYSE0EUIlFhcSMyQlKBkaGxwdHh8GIVFnIzNHOS8Qf/xAAaAQEAAgMBAAAAAAAAAAAAAAAAAwQCBQYB/8QAKxEAAgIBAwMEAgICAwAAAAAAAAECAxEEEiEFMUETIjJRYXGRoRWBFDM0/9oADAMBAAIRAxEAPwD7igCAIAgCAIAgCAIAgCAIAgCAIAgCAIAgCAIAgCAIAgME2QEdUY1RwSFnEL3DUMF7e1RytiinbrqK3hv+D3R4rSVRDGSWefRfkSvY2Rl2M6dXTbxF8nfe6zLIQBAEAQBAEAQBAEAQBAEBgoCv7QYk4ONJA62XlHD5KvdZj2o1HUNU0/Sh/sh6Wjnq3FtPGXW1OgHtUEYuXY1tNFlz9iPE8MtNLw5mFjxmL/NJJxfJjOudUsSWGWTAcRNVGYZjeZg1PpDtVqqe5YZu9DqvVjtl3RMBSmwCAIAgCAIAgCAIAgCAIDRWTimppJnaMaT4nkvJPCyR2zVcHJ+Ckkvmmubuke73kqj8mcs91kvyy5YdRto6VkTddXHtKuxjtWDp6KVTBRRzY7RCppC5o8rEN5p7RzCxthuiQa6hW18d0VqiqDS1Ucw0aet3jmqkJbZZNFRb6VikXdhBaCMwcwr51SeeT0gCAIAgCAIAgCAIAgCAhdp5tykZENZH5juH6FDe/bg1vU54qUfsisAg42IsJ0jBf9lFSsyKHT6992fotw0Vs6EEXQFIr4ejVs0I0a428NQqM1iRy2or9O2UfyWjA5uNhsJJzaNw+xW63mKN/o7N9MWSCzLQQBAEAQBAEAQBAcFditNRndkcXP8AUYLlYSsjHuVr9XXTxJ8nD/ckV86eS3cQo/XRU/ylf0yJxvFaesqYWscW7rNH5Zk/hQ22Rk+CjrtXC6S2+CT2VjyqJO0hqloXDZb6VH2ykWBWDbhAVXaWPdr2vHpsHwyVS9e7Joepxxan9o7dl33gmj9V4PvH4UlD4wWulyzXJfknVObQIAgCAIAgCAIDixeq6JQvkbbfPVb4lYTltjkr6q70anLyVCNktTMGMBfI88zqe1UknJnNxjO2eFy2Sn9vVO5fixX7M/mp/QZf/wAXZjuirY5SzU1c5kzN0gAdoVK6DjLk1GqpnVZtkiV2YxSahgId5SFzzdp1GQ0U1FjguS7oNZKiOHyi60tTHVRNkhcHNPwV9NNZR0ddkbI7os3r0kK5tS3r0zu5w+Sr3rsafqq5i/2Y2Wd5aobyLQfj+V5p+7MelP3SRZFZN0EAQBAEAQBAEBB7Uk9FhHLifQqG/sjV9Ub9OP7OHZloOIuJ1ERt7wo6PkVemJes/wBFqVo3xTtoAHYnMCAQQLg+Cp3L3nOdR/72aIMLc3DukwXLA477B6Ph3LFVezKI46STp9WP8HrDq6ShnD2G7D57O1IT2M902olRLK7FxppmVELZYjdjhcFXU01lHR1zjOKlHsQm1XmU/bdygv7I1nVfjE07Lf7ub/j+qxo7si6V85fosytG7CAIAgCAIAgCAidpIeJhxeBnG8O+n1UVyzEodRhuoz9EFg84p8RicTZruqT4/oVep4marRWenevzwW580cf+o9rf8jZXM47nRSnGPdlQx+op/wCpPc2eMhzWnJ4VO6S39zneoTg73hkvsxPC+gcwSsJEhyDh2BTUSW02PTbIunGfJw45h3RZeNE3yL9R6p+yjtr2vKKev0qre+PZmdn67gT9Hkd5OQ5dzvyvaZ4eGZdP1OyXpy7M37Uu8pTN7nH5L2/wSdVfMV+zGyrbz1D+xoHx/CafyOlL3SZZFZNyEAQBAEAQBAEBH4vWU9PTOZOd4yAgMGpWFkklyVdVfXXBqfk+c1dXPxHMLjHY6N+61cpvODkZWSySFHOaqMOcS6QZOvmbqSMnJE8JOznuzlxanlbJG/hSAOba+6eX/qwti85I765JptDCSQJGkWNwc17U2hTxklekz8F0XFduO9FxuFNuljBb9e3a454OGCrDpDHJ1JWnlpfuUUZ84ZWjZh/klcSrOmuhfzbGGu/y5qeyW7Be1V/rOL+kS+y8dqeaT1nge4flTUL25Nj0uOK2/wAk6pzaBAEAQBAEAQGirqG01PJM/wA1guvJPCyR22KuDk/BSp5pKmd0kh3nvP6AqLbk8nMWWSunufdm+s2cd0cVkwvI0daMch2ley0/G4sWdMkq/Uff6NeGTjDqgSRMG5o9o9ILyuWx5RDpbvQnuXYnMe3KvDY6qE7wY4H2HL7KxbiUMo2uuxbQrIkXgkjG4gxkoa5kgLDcXHcoqn7uShoZRV219nwTVZgdNO0uiHBk/jp7lPKmLNpd0+qz48Mo+P0UtDWgSixcNRoe8LX3QcJcnN6uidE8SPGDVRqGz75uWuBv3foXlUtxjVLKPoeCw8HDoWkWLhvH25rZ1rEUdXo69lMUd6zLQQBAEAQBAEBF7Rb39Lk3fWbfwuo7fgyl1D/zsr2EFgxKnMnm73x5fGyrV43cmm0bir47i52BbYjJXTpirY1hbqV5mgbeAnMD0PwqtteOUaHW6P03vguDip6t8EckR60Mgs9h+Y71HGTXHgqVXyrTh3i/BywzAuvG7rsOnMELBS+iCM8PK7ovGH1TaulZM3Uizh2Hmr8Zblk6qi1W1qaKj/8ASaqER0kDT5clzstQ39+Spa6SSS8mn63OOIR8kFsbSuq698YHVIG8ewc1X0kd0sGt0FLtuUT6o0ACwFgOS252CMoAgCAIAgCAIDVVQtqIHxP814sV41lYMLIKcXF+Sk1VPJSTuilFnN0toR2hUZRcXg5i6qVM9rJfD8edE1sVW1zgMhIMz7Qp4XeJGx0/UcLbZ/JMxVtJVNIZNG++RaT9CplKLNlC+q1cSTIfEsCIvLRC41MX2UNlPmJrtT0/Puq/gqeLU5ikMt+HK3zmk2PiqVkccmiurcXzwzkg2jrqHeFLUHra3aCPio46icOzPadZdT8GRU89RX1TpJ3vmqJHAG+ZJ5AfZQylKcsvlkU5zunuk8tn03Y3AzhNBv1AHS5utJ/Acmrbaan04892dP07R/8AHrzL5P8AosSsmyCAIAgCAIAgCAIDlraGGsj3Jm3I81w1asZQUlhkN1ELo4kV2rwKqhJMIEzP45H3KtKlrtyaa7p1sPhyiNkjfGbSsczuc2yiw0UZQlH5I8Ai1gV5kx3P7MOhZNZpjD+wWzTbkbN3gzFsn0x1+iujB9Jzi0fdFpd3gmq6bZb4x/RZsF2bocJIljiD57W4jsyPC6tVaeFfK7m60vT6tP7ly/smrKcvmUAQBAEAQBAEAQBAEBgi6AwWg65oeNZPJghOsTP+oXm1GOyP0ZbGxvmtA8BZMGSSXZHqy9PTKAIAgCAIAgCAIAgCAIAgCAIAgCAIAgCAIAgCAIAgCAIAgCAIAgCAIAgCAIAgCAIAgCAID//Z;fontSize=15;" parent="_MScuo_bcrqL3sZ4RQrd-1" vertex="1">
          <mxGeometry x="40" y="16.5" width="67" height="67" as="geometry" />
        </mxCell>
        <mxCell id="_MScuo_bcrqL3sZ4RQrd-5" style="edgeStyle=orthogonalEdgeStyle;rounded=0;orthogonalLoop=1;jettySize=auto;html=1;exitX=0;exitY=0.5;exitDx=0;exitDy=0;entryX=0.447;entryY=0.018;entryDx=0;entryDy=0;entryPerimeter=0;" parent="1" source="mIPZNAXwj-B8DPMDP-bw-2" target="kePcl1x98MUpWLDZVXkW-2" edge="1">
          <mxGeometry relative="1" as="geometry" />
        </mxCell>
        <mxCell id="_MScuo_bcrqL3sZ4RQrd-6" style="edgeStyle=orthogonalEdgeStyle;rounded=0;orthogonalLoop=1;jettySize=auto;html=1;exitX=1;exitY=0.5;exitDx=0;exitDy=0;" parent="1" source="mIPZNAXwj-B8DPMDP-bw-2" target="_MScuo_bcrqL3sZ4RQrd-2" edge="1">
          <mxGeometry relative="1" as="geometry" />
        </mxCell>
        <mxCell id="dBBG4YdqkVVAn4FNQxjj-1" value="Grafana Dashs" style="image;aspect=fixed;html=1;points=[];align=center;fontSize=15;image=img/lib/azure2/other/Grafana.svg;" parent="1" vertex="1">
          <mxGeometry x="222" y="787.1" width="68" height="52.800000000000004" as="geometry" />
        </mxCell>
        <mxCell id="dBBG4YdqkVVAn4FNQxjj-2" value="Locust Html Results" style="shape=image;html=1;verticalAlign=top;verticalLabelPosition=bottom;labelBackgroundColor=#ffffff;imageAspect=0;aspect=fixed;image=https://cdn0.iconfinder.com/data/icons/communication-technology/500/code_brackets-128.png;fontSize=15;" parent="1" vertex="1">
          <mxGeometry x="365" y="774.9" width="65" height="65" as="geometry" />
        </mxCell>
        <mxCell id="dBBG4YdqkVVAn4FNQxjj-3" value="Locust CSV Results" style="shape=image;verticalLabelPosition=bottom;labelBackgroundColor=default;verticalAlign=top;aspect=fixed;imageAspect=0;image=data:image/png,iVBORw0KGgoAAAANSUhEUgAAAOEAAADhCAMAAAAJbSJIAAAAflBMVEX///8AAADMzMw+Pj7i4uIeHh7u7u7CwsK0tLTS0tJdXV1ra2vPz8/8/Pw1NTXGxsb09PTY2Nh8fHyfn5+srKxycnJjY2NTU1Pp6emTk5O6urqHh4c4ODgXFxcxMTGjo6MmJiZHR0dMTEx5eXkjIyMRERGYmJgaGhqDg4OPj49o90J3AAAH10lEQVR4nO2de3+qPAzHBdm8DRXvl03nOXPH5/2/wUedU5KmpWBI3T75/guU/kibphfaRkNRFEVRFEVRFEVRFEVRHo7nyaj58VQL0zi0uCPZLKqTbhpa4KhWfUc+wkpM+3ULjKJNSInpR/0Cw0p8lRAYRf1gAtcyAo8SA1kxkRIYzIr1NhOQ1xBWTAUFHiUGULgSVRjCimJ+JpjEubBC+YLalFYobkWosPPMx3BikxhSYcKZdNtmRdmmP4RC2aY/iELRuhhGoWRdDKRQ0IqhFMpJDKZQTGI4hVKNRkCFQo2GmMLuJpAVxRRO439hrCimsNcZEGN6AlYUVPgyoKxYu0RBhfHL4CmAREmFYSSKKgwiUVZhCInCCmPa3XC+FiOtUN6K4grFrSivUNqKARRarFiXxBAKZa0YRKGoxDAKJSUGUkhLrGWuP5TCo8Q3woqc778QTKGYFcMppK244czBmYAKhdxNSIUWKzJLDKpQxIphFVo8KqtEudHErEORxe81SxRTuJl1SWZ/TIWsdTHkqL4DRokPqjB6YpP4qAqjOVc2HlZh1GHKxuMqHDFl43EVNpmyoQrvoPXrFQ5/vcLG9NcrvM+IP0FhI/v1ChvDO36o+hkKG430peXLYPIjFZZh8esVJqqwEqpQElVYDVUoiSqshiqURBVWQxVKogqroQolUYXVUIWSqMJqqEJJVGE1VKEkqrAav18h3J9mwZRqNeC8BdeCmmU+0TemRKuyz2fmkynR53yiY6ZEqzLOZ+aZK9XcRlGhTQiM+B9fqrcN28LWwhO3mjjjTHb7lWZvyJloRYa9r8xsmdONt+PVI+g7MVyNt4+wZ62iKIqiKIqiKIqiKMpPZbhIkmTxKKM9boaduNWKsxKZzT5vP2Q31wWDWotBKyvKQdzi+oPUIBvfJjL282VRVs7ZGRt/1M8nVpEvu3PSrtHCpMs9JHwl3e5xXqNlgSnTpfHImRE9vHwdYW9a073+mPnGPhP2Sef14Ppv/IV+5sSMmHjY3i7vLCnGt1v2vBtkOP5pnVgfsnyUC8ZED5gGatNJ5ovRgU3dsbB1XVmdW4rUf06BRzuh58Dc0juZJDwzhU9g4YFBZJVwW/AMlAg/Izl2vwO3+Hg6Lxy1yfGuQfFTaCIXOl1qegl96haTwDjywCiofqcMgXYNbWNCuCL0R+YLj0C/f1mn+LGiSvjFOv8IOrZnaWQFfzWeEOk58gO5bs/fmMGKCvwtjbxs4XWmxQq+Z+mgOMp2igyi73rXCucFRUcDFoEeDpF8HbU1EAF0J6jRxa0+8nj/WATCNSwuoA0JP/PeJDZdR+06uooaIdQo8ywNIVv6XW9m7k8F62EHXZ1lp+vpov3X9RT2NXCHFuwRWPwMzmh02pTr61IMPfdf+CAqb7nADsTiuCbh0AJ8AOSdDe9dCcOEu1yfIMmfbok+KKy+sEItrj0ww5XgU9BALwplhSWgMWrhGl6fWl8HvzdeodU6+6G/RA8KBULvuUvoGD+elXu4c2f0Oi+FcWZUCajQLFBpYundoT32clHLDl6x9D1KgvwJFSnG22WbCK9QI/Mx9nULY/hg93qhMByogrPeuzEb/D9br1VjOBa6fj0Ukq5diVTNZplyQQaz/UOr+CP14DPfwSluYHmGMNDLSj1LKTybclyQN0tprCckhQNPZqjvwrFF0uvWWSnRCcuXFqWWkBQVjHLtj7vP1XUsviODUxSS7u/RdQM5mpIjWwUHCfftY7roznOpriUkRWYo28IWdhBHtk9GBKe1hKQ4vihdtwvHBv5Zmg8cSaU1haQ4TOoWP4AoHt+xVG0UnE7qCUkbeNu/8go9Ti2nrWgEpygkZTvhEvov2zC7ixT1Bg0sW6xjk6EBA56QtIFN8FQpjazgUGg6+ELBaR89dI8oAKrxFX/hSA5OiaRXdPthnpD0DEzY7K76snK0jXSk5Nw0kvG/Dxg/VXA1V9L4QJyOc+KDvN/V0rDtkdwwmt47w/lkSw5r0RbBVS8HT0j6Bdol9v4/cVKivNKzK/bpSqaQ9JIhlDhdE8vFq+kEjVPQIaZ9Xof3Bzr8xc1yOjm1BqNy5RcWVkunDNWQG7wLVlAsEe1Ri7H4ri70fHN7NFsTdodDB5Y1FbbB9t6dkjDGC0C/ru188Xev3NAIG0hbx9oyr8427XvBnJcZXc2YgDwYOm4B2xxZHiZoq1f0FDL7STpUhZ9P4iRbLTfuV4OiOM19+WwHH7Q6f+J0EsaQlM6oE9Su4cu9ZTuOV58Ho6GzeqkxvvNEDad2EYdJ08CRF/8N161vpoJTxpD0SnEfj1RoWexl4uiuE8FpLb8ib833kMCX+61TiJwxmBmccoakOfw2h3+HD/l+l3fzfTeMOssZkubxmpJHTs53u3VnlwwHp/VtCFDQTz9hROV+SzjcxQ63VTXu6VAwukv5Cz8PVRBkrkvdfRcFa06oXTg8FsMV9jhhcMo1SkrTIY54+2ZPD9AvCgtqcZcE1A/ukBRj9f9ra5zhdqhdj0KXL+v3jKL4kS7NZd7HouMaghs6xtn8Isxb6PZW7yHyFwaobfxjX3R/YUgHN0/2ldOI78DYtg6Zn2yynjf7m9f5aDzw+6rxGndD1mVqVDqZb5qj2v6vYGIYt9fTXq83PXy2Oz/jvxlFURRFURRFURRFURRFURRFUUT5H8Nabp7i5fiDAAAAAElFTkSuQmCC;fontSize=15;" parent="1" vertex="1">
          <mxGeometry x="540" y="799.9" width="40" height="40" as="geometry" />
        </mxCell>
        <mxCell id="dBBG4YdqkVVAn4FNQxjj-4" value="" style="shape=flexArrow;endArrow=classic;html=1;rounded=0;" parent="1" edge="1">
          <mxGeometry width="50" height="50" relative="1" as="geometry">
            <mxPoint x="259" y="740" as="sourcePoint" />
            <mxPoint x="259" y="780" as="targetPoint" />
          </mxGeometry>
        </mxCell>
        <mxCell id="dBBG4YdqkVVAn4FNQxjj-5" value="" style="shape=flexArrow;endArrow=classic;html=1;rounded=0;" parent="1" edge="1">
          <mxGeometry width="50" height="50" relative="1" as="geometry">
            <mxPoint x="400" y="740" as="sourcePoint" />
            <mxPoint x="400" y="780" as="targetPoint" />
          </mxGeometry>
        </mxCell>
        <mxCell id="dBBG4YdqkVVAn4FNQxjj-6" value="" style="shape=flexArrow;endArrow=classic;html=1;rounded=0;" parent="1" edge="1">
          <mxGeometry width="50" height="50" relative="1" as="geometry">
            <mxPoint x="560" y="740" as="sourcePoint" />
            <mxPoint x="560" y="780" as="targetPoint" />
          </mxGeometry>
        </mxCell>
      </root>
    </mxGraphModel>
  </diagram>
  <diagram id="zV2al2CM81XuHtdBySNn" name="Experiments - HPA">
    <mxGraphModel dx="2074" dy="793" grid="1" gridSize="10" guides="1" tooltips="1" connect="1" arrows="1" fold="1" page="1" pageScale="1" pageWidth="827" pageHeight="1169" math="0" shadow="0">
      <root>
        <mxCell id="0" />
        <mxCell id="1" parent="0" />
        <mxCell id="K9ZwCBfAX-9apRCx_4xD-1" style="edgeStyle=orthogonalEdgeStyle;rounded=0;orthogonalLoop=1;jettySize=auto;html=1;entryX=0;entryY=0.5;entryDx=0;entryDy=0;" edge="1" parent="1" source="K9ZwCBfAX-9apRCx_4xD-2" target="K9ZwCBfAX-9apRCx_4xD-3">
          <mxGeometry relative="1" as="geometry" />
        </mxCell>
        <mxCell id="K9ZwCBfAX-9apRCx_4xD-2" value="" style="verticalLabelPosition=bottom;html=1;verticalAlign=top;align=center;strokeColor=none;fillColor=#00BEF2;shape=mxgraph.azure.laptop;pointerEvents=1;" vertex="1" parent="1">
          <mxGeometry x="50" y="255" width="90" height="60" as="geometry" />
        </mxCell>
        <mxCell id="K9ZwCBfAX-9apRCx_4xD-3" value="Shell Script" style="rounded=1;whiteSpace=wrap;html=1;verticalAlign=bottom;" vertex="1" parent="1">
          <mxGeometry x="200" y="240" width="80" height="90" as="geometry" />
        </mxCell>
        <mxCell id="K9ZwCBfAX-9apRCx_4xD-4" value="" style="shape=image;html=1;verticalAlign=top;verticalLabelPosition=bottom;labelBackgroundColor=#ffffff;imageAspect=0;aspect=fixed;image=https://cdn2.iconfinder.com/data/icons/essential-web-5/50/script-programming-coding-add-on-128.png" vertex="1" parent="1">
          <mxGeometry x="210" y="245" width="41" height="41" as="geometry" />
        </mxCell>
        <mxCell id="K9ZwCBfAX-9apRCx_4xD-5" value="EKS Cluster AWS" style="rounded=1;whiteSpace=wrap;html=1;verticalAlign=bottom;align=left;labelPosition=center;verticalLabelPosition=top;" vertex="1" parent="1">
          <mxGeometry x="360" y="110" width="730" height="370" as="geometry" />
        </mxCell>
        <mxCell id="K9ZwCBfAX-9apRCx_4xD-6" value="Amazon EKS" style="sketch=0;outlineConnect=0;fontColor=#232F3E;gradientColor=none;strokeColor=#ffffff;fillColor=#232F3E;dashed=0;verticalLabelPosition=middle;verticalAlign=bottom;align=center;html=1;whiteSpace=wrap;fontSize=10;fontStyle=1;spacing=3;shape=mxgraph.aws4.productIcon;prIcon=mxgraph.aws4.eks;" vertex="1" parent="1">
          <mxGeometry x="391" y="120" width="46" height="80" as="geometry" />
        </mxCell>
        <mxCell id="K9ZwCBfAX-9apRCx_4xD-7" value="Load Test Node" style="rounded=1;whiteSpace=wrap;html=1;labelPosition=center;verticalLabelPosition=top;align=left;verticalAlign=bottom;" vertex="1" parent="1">
          <mxGeometry x="380" y="230" width="170" height="110" as="geometry" />
        </mxCell>
        <mxCell id="K9ZwCBfAX-9apRCx_4xD-8" value="Locust Pods" style="shape=image;verticalLabelPosition=bottom;labelBackgroundColor=default;verticalAlign=top;aspect=fixed;imageAspect=0;image=data:image/jpeg,/9j/4AAQSkZJRgABAQAAAQABAAD/2wCEAAkGBwgHBgkIBwgKCgkLDRYPDQwMDRsUFRAWIB0iIiAdHx8kKDQsJCYxJx8fLT0tMTU3Ojo6Iys/RD84QzQ5OjcBCgoKDQwNGg8PGjclHyU3Nzc3Nzc3Nzc3Nzc3Nzc3Nzc3Nzc3Nzc3Nzc3Nzc3Nzc3Nzc3Nzc3Nzc3Nzc3Nzc3N//AABEIAIIAggMBIgACEQEDEQH/xAAcAAABBQEBAQAAAAAAAAAAAAAAAwQFBgcCAQj/xAA9EAACAQQAAwQHBgQFBQEAAAABAgMABAURBiExEkFRYQcTIjJxgZEUQlJiocEzcpKxIySC0eEVc7LS8Aj/xAAaAQACAwEBAAAAAAAAAAAAAAADBAACBQEG/8QAJREAAwACAwEAAQMFAAAAAAAAAAECAxEEEiExYSIjQRMUMlGx/9oADAMBAAIRAxEAPwDcaKKKhAorwnWye6oPK55YXa3slE0497n7KfE/tVpl18B5MsY1umS89xFboXmdUUdSx0BUJc8Twc1soZLg/iHJfqf+ahZlkuX9ZeymZ+oB91fgK8dwOlF6TP0zb5mSv8PBzPnMtL7ht7ceQLn9hTCa9yrb3lJF/kiQftXMktNpJa47lAW8lfWD32YQ7jzNxv8ANHGf2pMcTcTWjbW6srpO9Zrcofqp/auSxY6A2fKkJY2B0ylT4EUKsiZaXkn4yWs/SasJCZ3EXFsB1ntW+0Rj4gAMPoaueHzeMzdt9oxV7BdR95icHsnwI7j5Gsqmtu2OYqFuMa9tdi+sJpbO9T3bi3PZYeR7iPI8qp2Q1HLa8tH0BRWW8MekyW3lSx4vCR79mPJRrqM+Ui/cP5hy+Faejq6hkYMrDYIOwRXd7HopWto7ooorpYKKKKhArwnXM0VAcTZR4FSytG1czDr+Be9v9vOrTPZ6BZss4odMb5vMSXEz2Vg5ULylmX7vkPP+1RscaQp2UGh/91rmJY7eNI1Ot9N9Se+kZ7jsSRofvkjfy3RnShaRi1dZa7UKSSU1kkr2R6bOxNJ3mO7SPHfddWttJdPpPdHvN3Cu7GzkvJuwvJRzZvAVY4rVIYxFEulFDTdBccuvRna2aRDSL8z30yy3ZkuFRB7g0T51M3bfZrc6/iMPZqHjgaWTsqO0xrtPXhe/PEMUtGlYIikse4VIxYK3VP8AM+23gOgqWtrRLVO4uepokO6tK19OqEvpRuKOHoY4/WwKTG3JlPPVR/B3FtzwbcLZZFpJsCx1z9prPzXvKeI7u7vq85SES2Mykd2x8aoeRsVcHa7qrfV+FP6jw3ufhuEMqTRJLE6vG4DK6nYYHoQaUrI/RhxG+JyC8M5CQmznJ/6dIx/hv1MW/A9V+Y8K1yjJ7WzVx2rlUgooorpcQu50traSeVgqIpYk9wFUOCV7qWS/nBElwdqD9xPuj9/nU1x1das7ewU6N3Jp/wCQc2/YfOoMuAOXIUWH1nZi8/J2yqF/BzkGYW7PHzeP21HjrupjkrhfskN2h9hZI33+UkA/oaeltmoFlLWOVxfPtwKzReaMCy/Q7Hypa8mykImmryOFpZFRRtmOgK4xsovLC2uV6SxK/wBRViwVnza4YeS0rp1Wjkw6vQ7srNbS3CKPaPNj4mnKxhQXbkANk0sqbNNr9i2oIwSfvUx8Rodeq8Iu4L3VweyOZ5KPAU9trdLZPFz1NKxQLAp72PfXhO6olr1glOnt/Tx+dIuKVNJPVtkY3uF3byj8pqpXMQINW+4PZtpD+U1WJlqlsVzfSpZqyMiExu0cikNHIvVHB2rDzB1WwcC588ScOW19KAl0u4bqMfdlXk3yPIjyIrNchGCpp36KcicfxXeYpm/wcjD66NfCWPk31Uj+mrYq90G4GXVvG/5NgoryimDXM94rufXcVGPqtrbKP9TsSf0UUyMnnTTMXHa4qzJJ92ZEHyjX/euFl3VMl6Wjz2T9WWn+R+rbqMyzfYslYZE/wmb7Lcfyv7p+Ta+tPInqlcYcXJNHc4qyijkhPsSTPs7I/DrwPf5UrG6rwPhx1VeFx4L22HNs3v2lxNbEeHZcgfpqtEtYhFAiAdBzr574e49vMNcTvJaRXSXEolkHaKHtaAJB59deHWtm4P43w/FAEdq7295rZtZ9Bv8ASejfL6UecbTbHYw9abLK20TlzY9BSSwiIE9XPU08KaG9c6Qk61ZoK5GrjdJFaXYc6TahsE0ItSTUq9JkbNV2DaGeTfsWZH4jqq7MetTGZmBcRg+71+NQU70C69E8vtEden2TVet8guL4swd0Dpkv4wfJH9hv0Y1M5GdYo2dzoAVn2buXMxuvvRsHUeGuddx1ukc46/dTPrGik4H9ZBG/4lB/SitA3TGM/IYOL85Gdj/Mq31jWuIp/OmXpdabFcemaIlY7u1jk59GILKR+g+tRmPy0c4Ab2G8D0pLkNpmNmxOLb/2WPIXDLib1kbTLbyEEdQeyayN3A6arTpy1xYXEEZHaliZF2eWyNCq3g+DrsZS2lyX2drWNu06q/a7Wug1rpvVc4+WZl7YzxbmJe2U8vVv9G+YgxXENpPc69Wr+0fAeNPOL+B1WGTIYJdBQXltd8td5T/1+nhWexztGwZSQR3im4yK1tDsWrW5Ps6KWOeNXidWjcbVlOwRSUq1gHAPpLuMR2bS9Yy2v4Sea/CtuwfEGOzkAaxuEdvw79ofKrNeFqW0LyDVIsaczL1pqwpeheloSc0jPKIYmdvl50rKyRoWc6AqByN761uXJR0FBu+qAW+qGV3KWYsTzJ3UVdTBFJJpa6uAN6qGu5C3U0m6EqIvLTtL16Duqp5dDJG6L1bkPnVkvjvdRthaNkOIMZZoNma8iQjy7Y3+m6Nx1ui3HX7h9O2q9i1hU9Qij9KKVAGqK1ja0ZR/+gMSZcRj8zENmzmMUmvwSa0f6lH9VZDYzbA519TcQ4mHOYS8xdz/AA7mJoye9SRyYeYOj8q+UJba5xORuMffp6u5t5DHIvgR+3fS3IjtIvycfaS22F0y60xqetbzpsVTbGbWudTlrNyHOsety9GXvRa7e6B5dx7qz6XhWC+mymKtuxDf2cnrrRugmgfmEPwPLfnVphn6c6jstKbTPYjIxa7byG0lUdWRuY+hG6Y4+Vy2kGwZWm0jLriKa1neGdGjljPZZGGiDT3HZzIYyZJ7K6khljIZHU9CK0fi/huHPxevgCx36D2X7pB4N+xrKJ7aW2neGeNo5UbssrDmDWlizTlXhpYc05V59Povg30gDiPGCRigvIgBcQnuP4h+U1Ny5qT7qovmK+Y8TkLvE30d5YyGOVPow7wR3g1q2C4ysswixyMLa774ZDoMfynv/vS+eMk+z8F+RNx7PwuV3kJJTt3JqMuJye+kZJSfjSDMTSLbbM95GziaTdMZ23Tpx1ppMNCrTGzhEXp5Gpv0S4s5DjRbxlJix8TSb/OwKr+hY/KoDIuADz0BWyeivAthuHBLcJ2bq9b18gPVQfdX5Dn8Sad4+P8AVsZ4k9q2XPVFe0U6awVjfpz4OaVBxTjo9vCoS+RR7yDpJ8uh8teFbJXEkaSIySKGVhplI2CPA1xraONbR8k2E2wKnrSXpzqU9JHAUvCd8+UxsbPhJn6AbNqx+6fy76Hu3rw3A2MgYKazuRh0zJ5OJy9lht22KZXO7riawg3tbWJ7hh5nSindpogc6TwievymUvPu+tECHyQc/wBTQseJrb/Avj87V+P+k5GSdaqH4o4ZizUAmh7Md8i+w56OPwt/v3VPRR04Ef0ruOKitoHF1FdpMjxnDc1/NNarPHBewn2redSpI8iN7+ldXPDtxYXUcGS7MMTnQnC9tP8An4da0fN4JMh2LmBvU30XOOUct67jXuNuhkInsslEouU9mSN15P5gVoLJT9Rof3dNdl8/kRwOLhsLNfUXUt0rjYkZ9rr8o6AVIFKjjibjFyNLiXLwk7e2fn9KeWl/BdAqNpMvvRN1BoFYNvsvRW1t9k9hIuqjbxwBT+6mVAd6plisVe8S5L7FYDsqujPORtYVP9z4CrTj0CW7fVDngThxuI84JZ03j7Nw02xykfqE/sT5fGtzVQo0BUfg8Ta4XGw2NlH2Ioh82PeT4k1I0zE9Vo28GFY50FFFFWDhRRRUIJ3EMVxC8U6LJE6lXRhsMD1BFY5xj6L7nHSyZDhRDPak9p8fv24/+2e8flPPw30rZ6K45VLTK3CtaZ80WF4AxRgyup06OCrKfAg8walcLGlpE0SuDGXZ1315nZ34862DiPg3DcRe3e23YuQNLcwnsSL8+/4HYqh5H0b5qwJbF3UV/EPdSX/CkHz90/pQP6TXz4ZWbiXG+nwbQSL406Rwagp7fM446vsTfQ66sIS6/wBS7FcrmoYxqSQIfB+R/WuqEIUrn6ixdsCmGUs0uuzLEwjuo+aSfsai2zsDHSzI3kDulIZ768IWysLycnp6u3cj661V1pPaOxV73KHFllxKWgutR3UfvKfveYpjm2tZwZWb1Uq9JVOiPj41Jr6PeIs20csqx4tlPKaVg7gfyr+5FXzAej7FYtknuy+Qu15+tnA7IPiEHIfqfOr/AJkcji5LapeGecJcLZ/iN93oNpjl6XZXTyj8in/yPL41seFw9lhbJLTHwiKJPDmWPeSe8+dPlUKABXVTRpYsEY/UvQooorocKKKKhAoooqECiiioQ8oNFFQgEDwFN5IYn9+JG+Kg0UV1A7OVtoFPswxj4IKcIBroK8orrK4zsUCiiqhj2iiioQKKKKhAoooqEP/Z;" vertex="1" parent="1">
          <mxGeometry x="450" y="267.5" width="35" height="35" as="geometry" />
        </mxCell>
        <mxCell id="K9ZwCBfAX-9apRCx_4xD-9" value="" style="sketch=0;html=1;dashed=0;whitespace=wrap;fillColor=#2875E2;strokeColor=#ffffff;points=[[0.005,0.63,0],[0.1,0.2,0],[0.9,0.2,0],[0.5,0,0],[0.995,0.63,0],[0.72,0.99,0],[0.5,1,0],[0.28,0.99,0]];verticalLabelPosition=bottom;align=center;verticalAlign=top;shape=mxgraph.kubernetes.icon;prIcon=node" vertex="1" parent="1">
          <mxGeometry x="390" y="232.5" width="30" height="30" as="geometry" />
        </mxCell>
        <mxCell id="K9ZwCBfAX-9apRCx_4xD-10" value="" style="shape=flexArrow;endArrow=classic;html=1;rounded=0;" edge="1" parent="1">
          <mxGeometry width="50" height="50" relative="1" as="geometry">
            <mxPoint x="300" y="285" as="sourcePoint" />
            <mxPoint x="350" y="285" as="targetPoint" />
          </mxGeometry>
        </mxCell>
        <mxCell id="K9ZwCBfAX-9apRCx_4xD-17" value="" style="shape=flexArrow;endArrow=classic;html=1;rounded=0;" edge="1" parent="1">
          <mxGeometry width="50" height="50" relative="1" as="geometry">
            <mxPoint x="555" y="286" as="sourcePoint" />
            <mxPoint x="605" y="286" as="targetPoint" />
          </mxGeometry>
        </mxCell>
        <mxCell id="K9ZwCBfAX-9apRCx_4xD-18" value="" style="group" vertex="1" connectable="0" parent="1">
          <mxGeometry x="920" y="140" width="150" height="110" as="geometry" />
        </mxCell>
        <mxCell id="K9ZwCBfAX-9apRCx_4xD-19" value="Monitoring Node" style="rounded=1;whiteSpace=wrap;html=1;labelPosition=center;verticalLabelPosition=top;align=left;verticalAlign=bottom;" vertex="1" parent="K9ZwCBfAX-9apRCx_4xD-18">
          <mxGeometry width="150" height="110" as="geometry" />
        </mxCell>
        <mxCell id="K9ZwCBfAX-9apRCx_4xD-20" value="" style="sketch=0;html=1;dashed=0;whitespace=wrap;fillColor=#2875E2;strokeColor=#ffffff;points=[[0.005,0.63,0],[0.1,0.2,0],[0.9,0.2,0],[0.5,0,0],[0.995,0.63,0],[0.72,0.99,0],[0.5,1,0],[0.28,0.99,0]];verticalLabelPosition=bottom;align=center;verticalAlign=top;shape=mxgraph.kubernetes.icon;prIcon=node" vertex="1" parent="K9ZwCBfAX-9apRCx_4xD-18">
          <mxGeometry x="10" y="2.5" width="30" height="30" as="geometry" />
        </mxCell>
        <mxCell id="K9ZwCBfAX-9apRCx_4xD-21" value="Prometheus Pods" style="shape=image;verticalLabelPosition=bottom;labelBackgroundColor=default;verticalAlign=top;aspect=fixed;imageAspect=0;image=data:image/png,iVBORw0KGgoAAAANSUhEUgAAAIQAAACDCAMAAAB7n0MtAAAAdVBMVEX////mUizkPQDlTCHlRRTysqftjn364+DmUCnkQADmTiXlSRz2y8PlRxj2ycLlQQn87+3++Pf76OX1w7vnVzTxq5/pcVjnXDzwpJbuk4L30cvjMgDzua/419L53NjoYUPqd1/shnPoZ0vrf2vvno/pbFLiGQChpfYgAAAITklEQVR4nL1ca4OyLBBNpCSQvFSW1moXe///T3zFW94GRqvnfNl2F/U4DMOZAVqtliPwQyct4IR+8MFtFsJ33OPmlZ0OlsU455Z1OGWv+9F1/H9EIEjyZ+YRKjhTsBTUB25Tsj09493PjZIeowspHm8BYFxsL6/z3y8ZMCE59Pw3uBRWnv6CQbCPbApaYGQRKqPrtx0kOB8IwgY9e3g8/yaNML5IyAhM2qA5BLk7X6Lgx0yC7ysOxzvIovi3HYff4LC2NK4gb/7qoPUUyc4fU/g7bTXPELfVak91HJSPWu5HFPzY07kjZ0WbM9xXTTN6/8BD/zL9W4pd0WgjTCSKPjkkSzkcL/pRad9UqxhBwmIkX0TBjzzDnb0yKh4NPlGDnhZ0SXowvSG/lVPVDmOJAvb8LnGFMUDSY2UxeDobkKbXeRzWxHznSx2GboNgBbMns0LGGdHPTNSN99venw8RzMKb4Z5HYuZg8ahu7Z+6VrPdh8aINEbbAcPBsu9N+7jTH+QaXHRXeRskB9PQrEm0L+W8H1sw2+sv91C2uG41t6Dv/hbvu729gPjGMO4dzRwSDQeWXd/RQ7ydbN08V8b9zplmsTdxSG3d2Lw4q2fDQnbeqCHOHQQJdRctgpM2RnlFuHnVD6Hr92X1JFZOJrkxgrKDXujc9XdQXZDWNGXHqknVH0QJh6s5xoinjsPVMDiFGmB59UTRTS7K2MDKOeoPMcB1QSs16ZNyRPjVGLS7s2I5lVaRQx8nGhbwZPYy+RQtg3+pbBnrXhmq16/dPsPkRwcoWTQrg+oxpapso3aJQIWKS2Ubs95TrwN0SGi2Yz1xqtfuDg71AtLiWfUxQQkMoEOeRjOy2ogvPrpJSt4h9IQRGPwxxWFn9mp+b/uNnQZj/WLJxjZH1OQzJXEChD81XeB6hbYbXH/isrGNr0+HajAyJrFG6JhL7dJOFTt7uNuiHbM5SvvKsW8KM/vG85SM8Yba+Uzt9rOPuJka5MN7YAzhtQPiIe6D6wsF0PE0XBowHKYBohuZ1fpidBkVhPakq5kOmGLGcCLbIwJ+lXCVeGarIRLSFSumLLkC7esbjUJuQXZt8/tuNUS67WmVF8oUvHvJH0bid/K4iWgX0t4fXZRY9rovY5ARJYReoQZWz00ClCnsjn8HmEyOGIqTWV+0YYZbKYwb7BHzXr//JhCN4jgC71G/ehq16WR86yMehB5dPa1FJ/pjnEiYEvv1gARqlDKr6cQEQcLYG6u/AYkQNY21A3uDMJytFcgKwVCwPVDj41ZfjRlNo1nTDFwxq5aqDqbz6Pyq/RWlberMASGpiix0ftkLk4C0QgljtpGQQsDRpfct7GryxbiE2S/HCFEFNXZSbQOMOBYLaqE+SnVbl9JqmKYUUdkYkchQJIgKVwkqYVobnzkmoaugvVFmdYYa089JSJXfHlGW+F13lMMDFdgMimYSoYUiwdXAQ025S4aogwpWVZ3+hpln+Gv+4jNmcm5ujXIfxuavLeYYZ6tnBFxIMRcfR0BJ3VrFH1BN5zsFTtSoPKwggWpZsJjrFIhSYk0iRJOQc8MVpn5WkUB3h8VP8zg4KMnfkIAckxNqd1+GzHPNXvgpt5kAzylHB+DELEuu8U0UTOqL2WmOV/w1hlB7S4h1i6+Qo7KHDwcrkqjtQ+nx+eBeWXmBSo9TKOuaFpeenUXx3lGbj0IgdvEogAV/OyiDdB8fKJU2xW+VOXu2lPSV79NWm56BOapUjtDSwDs5Kpkkx032H1btuv894mufMijgyrokmD7T0SpmgN2QkY7dB6wFlWtpsKjxkI9EAawFlStIcClaLlAyEFwwfm5VtUYT4+lX9sOUgMt5VdEeVmHjauVSaOo2VXVZU7mjizeA9BGAO6Saar9mdZ6J7+zm05SCavWqk2Hf6RBdfi6rmkOom3NnTluTcHTFQbsKiYFO6jL7841rukJ3u56nVaTwuh0WT11iI5qyfKrV5mpX2SeItTLPa3ejwQOobLdZf4BYK/w7qw2GTNCmH8Bw67eId5Fbpb6PzvLFCpe6fh+9YIjZ0vQL2N1k39HmCJJ8AO3rkV51VLdELc+hsxihbt2D95fSEk2qMnfLXB+uZt4YZtm6+XxBveqNHUyCZwG67c9IbEcmhmeZX5FgQ0MUjUEH+hUJMuFrw22VvyYxmeanUOsfkZDjVeYVvPf5NyQgheBNzyA/IcE4kNcCi4ifBatkmsSUV1Z4TgoQHsWb5ZgWsPYLZA3syOH2B5jkMN4N07UdrhL8Mag2kfg3wsK0Z/lmKEjbWwQM9+CwQ1QIHtqVB3uT7Nyd67q78kf5qfzFrT+pH4m+tM7NxeGQ6fTmuIQ0Be0GDsYQ9bf0osscUQmyNoXYTobrIRLNQSPzDgYFXXJ7QR4AcjUZGWbhXtOjDL9usoMPVmCWitewmJqzAyIBWTBqdG14Cx27zKp2pBY0UoXxWAI4QLmceYQzzCAP14dczbYJkc0+RhpAh58MtRsfymvpa0lV9Ag4BiMaFg4Dlk+2C9aYFf6AU1hMgD3iAidrhbW4AOc/pxUfo/fJMRLk03GO0eGeuFnYA5UWIY4jGsGaT88Z4jOVWtw5ppODlUnvnnRez082dDrQcrL5/BRvGlGgn+npFa/3SbK7xlEGmIzR13fq43voEDPjwtsSsvWgk+bcg314Po0XweyyGHXE46NsYYTkOeNUeQlq39yvn/h3ckuidqYrCCl/c8a+CEWx1H3RQNMLgnib77nCBNI8YkTyadnCGC9YRvmX1os0CMIkj06W8KiwazLqex8E9YR1euVu+O++DyNMdut8c3tkB/UNGI/bPS8ihrP0+f8Dnx2GZBPDmvsAAAAASUVORK5CYII=;" vertex="1" parent="K9ZwCBfAX-9apRCx_4xD-18">
          <mxGeometry x="49.809999999999945" y="32.5" width="50.38" height="50" as="geometry" />
        </mxCell>
        <mxCell id="K9ZwCBfAX-9apRCx_4xD-22" value="" style="group" vertex="1" connectable="0" parent="1">
          <mxGeometry x="920" y="320" width="150" height="110" as="geometry" />
        </mxCell>
        <mxCell id="K9ZwCBfAX-9apRCx_4xD-23" value="Monitoring Node" style="rounded=1;whiteSpace=wrap;html=1;labelPosition=center;verticalLabelPosition=top;align=left;verticalAlign=bottom;" vertex="1" parent="K9ZwCBfAX-9apRCx_4xD-22">
          <mxGeometry width="150" height="110" as="geometry" />
        </mxCell>
        <mxCell id="K9ZwCBfAX-9apRCx_4xD-24" value="" style="sketch=0;html=1;dashed=0;whitespace=wrap;fillColor=#2875E2;strokeColor=#ffffff;points=[[0.005,0.63,0],[0.1,0.2,0],[0.9,0.2,0],[0.5,0,0],[0.995,0.63,0],[0.72,0.99,0],[0.5,1,0],[0.28,0.99,0]];verticalLabelPosition=bottom;align=center;verticalAlign=top;shape=mxgraph.kubernetes.icon;prIcon=node;fontStyle=1" vertex="1" parent="K9ZwCBfAX-9apRCx_4xD-22">
          <mxGeometry x="10" width="30" height="30" as="geometry" />
        </mxCell>
        <mxCell id="K9ZwCBfAX-9apRCx_4xD-25" value="Kubecost Pods" style="shape=image;verticalLabelPosition=bottom;labelBackgroundColor=default;verticalAlign=top;aspect=fixed;imageAspect=0;image=data:image/jpeg,/9j/4AAQSkZJRgABAQAAAQABAAD/2wCEAAkGBwgHBgkIBwgKCgkLDRYPDQwMDRsUFRAWIB0iIiAdHx8kKDQsJCYxJx8fLT0tMTU3Ojo6Iys/RD84QzQ5OjcBCgoKDQwNGg8PGjclHyU3Nzc3Nzc3Nzc3Nzc3Nzc3Nzc3Nzc3Nzc3Nzc3Nzc3Nzc3Nzc3Nzc3Nzc3Nzc3Nzc3N//AABEIAIIAggMBEQACEQEDEQH/xAAbAAEAAgMBAQAAAAAAAAAAAAAABQYBAwQCB//EADsQAAEDAgMEBQwBAwUBAAAAAAEAAgMEEQUhMQYSE0EUIlFhcSMyQlKBkaGxwdHh8GIVFnIzNHOS8Qf/xAAaAQEAAgMBAAAAAAAAAAAAAAAAAwQCBQYB/8QAKxEAAgIBAwMEAgICAwAAAAAAAAECAxEEEiEFMUETIjJRYXGRoRWBFDM0/9oADAMBAAIRAxEAPwD7igCAIAgCAIAgCAIAgCAIAgCAIAgCAIAgCAIAgCAIAgME2QEdUY1RwSFnEL3DUMF7e1RytiinbrqK3hv+D3R4rSVRDGSWefRfkSvY2Rl2M6dXTbxF8nfe6zLIQBAEAQBAEAQBAEAQBAEBgoCv7QYk4ONJA62XlHD5KvdZj2o1HUNU0/Sh/sh6Wjnq3FtPGXW1OgHtUEYuXY1tNFlz9iPE8MtNLw5mFjxmL/NJJxfJjOudUsSWGWTAcRNVGYZjeZg1PpDtVqqe5YZu9DqvVjtl3RMBSmwCAIAgCAIAgCAIAgCAIDRWTimppJnaMaT4nkvJPCyR2zVcHJ+Ckkvmmubuke73kqj8mcs91kvyy5YdRto6VkTddXHtKuxjtWDp6KVTBRRzY7RCppC5o8rEN5p7RzCxthuiQa6hW18d0VqiqDS1Ucw0aet3jmqkJbZZNFRb6VikXdhBaCMwcwr51SeeT0gCAIAgCAIAgCAIAgCAhdp5tykZENZH5juH6FDe/bg1vU54qUfsisAg42IsJ0jBf9lFSsyKHT6992fotw0Vs6EEXQFIr4ejVs0I0a428NQqM1iRy2or9O2UfyWjA5uNhsJJzaNw+xW63mKN/o7N9MWSCzLQQBAEAQBAEAQBAcFditNRndkcXP8AUYLlYSsjHuVr9XXTxJ8nD/ckV86eS3cQo/XRU/ylf0yJxvFaesqYWscW7rNH5Zk/hQ22Rk+CjrtXC6S2+CT2VjyqJO0hqloXDZb6VH2ykWBWDbhAVXaWPdr2vHpsHwyVS9e7Joepxxan9o7dl33gmj9V4PvH4UlD4wWulyzXJfknVObQIAgCAIAgCAIDixeq6JQvkbbfPVb4lYTltjkr6q70anLyVCNktTMGMBfI88zqe1UknJnNxjO2eFy2Sn9vVO5fixX7M/mp/QZf/wAXZjuirY5SzU1c5kzN0gAdoVK6DjLk1GqpnVZtkiV2YxSahgId5SFzzdp1GQ0U1FjguS7oNZKiOHyi60tTHVRNkhcHNPwV9NNZR0ddkbI7os3r0kK5tS3r0zu5w+Sr3rsafqq5i/2Y2Wd5aobyLQfj+V5p+7MelP3SRZFZN0EAQBAEAQBAEBB7Uk9FhHLifQqG/sjV9Ub9OP7OHZloOIuJ1ERt7wo6PkVemJes/wBFqVo3xTtoAHYnMCAQQLg+Cp3L3nOdR/72aIMLc3DukwXLA477B6Ph3LFVezKI46STp9WP8HrDq6ShnD2G7D57O1IT2M902olRLK7FxppmVELZYjdjhcFXU01lHR1zjOKlHsQm1XmU/bdygv7I1nVfjE07Lf7ub/j+qxo7si6V85fosytG7CAIAgCAIAgCAidpIeJhxeBnG8O+n1UVyzEodRhuoz9EFg84p8RicTZruqT4/oVep4marRWenevzwW580cf+o9rf8jZXM47nRSnGPdlQx+op/wCpPc2eMhzWnJ4VO6S39zneoTg73hkvsxPC+gcwSsJEhyDh2BTUSW02PTbIunGfJw45h3RZeNE3yL9R6p+yjtr2vKKev0qre+PZmdn67gT9Hkd5OQ5dzvyvaZ4eGZdP1OyXpy7M37Uu8pTN7nH5L2/wSdVfMV+zGyrbz1D+xoHx/CafyOlL3SZZFZNyEAQBAEAQBAEBH4vWU9PTOZOd4yAgMGpWFkklyVdVfXXBqfk+c1dXPxHMLjHY6N+61cpvODkZWSySFHOaqMOcS6QZOvmbqSMnJE8JOznuzlxanlbJG/hSAOba+6eX/qwti85I765JptDCSQJGkWNwc17U2hTxklekz8F0XFduO9FxuFNuljBb9e3a454OGCrDpDHJ1JWnlpfuUUZ84ZWjZh/klcSrOmuhfzbGGu/y5qeyW7Be1V/rOL+kS+y8dqeaT1nge4flTUL25Nj0uOK2/wAk6pzaBAEAQBAEAQGirqG01PJM/wA1guvJPCyR22KuDk/BSp5pKmd0kh3nvP6AqLbk8nMWWSunufdm+s2cd0cVkwvI0daMch2ley0/G4sWdMkq/Uff6NeGTjDqgSRMG5o9o9ILyuWx5RDpbvQnuXYnMe3KvDY6qE7wY4H2HL7KxbiUMo2uuxbQrIkXgkjG4gxkoa5kgLDcXHcoqn7uShoZRV219nwTVZgdNO0uiHBk/jp7lPKmLNpd0+qz48Mo+P0UtDWgSixcNRoe8LX3QcJcnN6uidE8SPGDVRqGz75uWuBv3foXlUtxjVLKPoeCw8HDoWkWLhvH25rZ1rEUdXo69lMUd6zLQQBAEAQBAEBF7Rb39Lk3fWbfwuo7fgyl1D/zsr2EFgxKnMnm73x5fGyrV43cmm0bir47i52BbYjJXTpirY1hbqV5mgbeAnMD0PwqtteOUaHW6P03vguDip6t8EckR60Mgs9h+Y71HGTXHgqVXyrTh3i/BywzAuvG7rsOnMELBS+iCM8PK7ovGH1TaulZM3Uizh2Hmr8Zblk6qi1W1qaKj/8ASaqER0kDT5clzstQ39+Spa6SSS8mn63OOIR8kFsbSuq698YHVIG8ewc1X0kd0sGt0FLtuUT6o0ACwFgOS252CMoAgCAIAgCAIDVVQtqIHxP814sV41lYMLIKcXF+Sk1VPJSTuilFnN0toR2hUZRcXg5i6qVM9rJfD8edE1sVW1zgMhIMz7Qp4XeJGx0/UcLbZ/JMxVtJVNIZNG++RaT9CplKLNlC+q1cSTIfEsCIvLRC41MX2UNlPmJrtT0/Puq/gqeLU5ikMt+HK3zmk2PiqVkccmiurcXzwzkg2jrqHeFLUHra3aCPio46icOzPadZdT8GRU89RX1TpJ3vmqJHAG+ZJ5AfZQylKcsvlkU5zunuk8tn03Y3AzhNBv1AHS5utJ/Acmrbaan04892dP07R/8AHrzL5P8AosSsmyCAIAgCAIAgCAIDlraGGsj3Jm3I81w1asZQUlhkN1ELo4kV2rwKqhJMIEzP45H3KtKlrtyaa7p1sPhyiNkjfGbSsczuc2yiw0UZQlH5I8Ai1gV5kx3P7MOhZNZpjD+wWzTbkbN3gzFsn0x1+iujB9Jzi0fdFpd3gmq6bZb4x/RZsF2bocJIljiD57W4jsyPC6tVaeFfK7m60vT6tP7ly/smrKcvmUAQBAEAQBAEAQBAEBgi6AwWg65oeNZPJghOsTP+oXm1GOyP0ZbGxvmtA8BZMGSSXZHqy9PTKAIAgCAIAgCAIAgCAIAgCAIAgCAIAgCAIAgCAIAgCAIAgCAIAgCAIAgCAIAgCAIAgCAID//Z;" vertex="1" parent="K9ZwCBfAX-9apRCx_4xD-22">
          <mxGeometry x="40" y="16.5" width="67" height="67" as="geometry" />
        </mxCell>
        <mxCell id="K9ZwCBfAX-9apRCx_4xD-26" value="" style="shape=flexArrow;endArrow=classic;html=1;rounded=0;" edge="1" parent="1">
          <mxGeometry width="50" height="50" relative="1" as="geometry">
            <mxPoint x="867" y="380.2" as="sourcePoint" />
            <mxPoint x="917" y="380.2" as="targetPoint" />
          </mxGeometry>
        </mxCell>
        <mxCell id="K9ZwCBfAX-9apRCx_4xD-27" value="" style="shape=flexArrow;endArrow=classic;html=1;rounded=0;" edge="1" parent="1">
          <mxGeometry width="50" height="50" relative="1" as="geometry">
            <mxPoint x="867" y="198" as="sourcePoint" />
            <mxPoint x="917" y="198" as="targetPoint" />
          </mxGeometry>
        </mxCell>
        <mxCell id="K9ZwCBfAX-9apRCx_4xD-28" value="Grafana Dashs" style="image;aspect=fixed;html=1;points=[];align=center;fontSize=12;image=img/lib/azure2/other/Grafana.svg;" vertex="1" parent="1">
          <mxGeometry x="1160" y="149.29999999999998" width="68" height="52.800000000000004" as="geometry" />
        </mxCell>
        <mxCell id="K9ZwCBfAX-9apRCx_4xD-29" value="" style="shape=flexArrow;endArrow=classic;html=1;rounded=0;" edge="1" parent="1">
          <mxGeometry width="50" height="50" relative="1" as="geometry">
            <mxPoint x="1101" y="180.7" as="sourcePoint" />
            <mxPoint x="1151" y="180.7" as="targetPoint" />
          </mxGeometry>
        </mxCell>
        <mxCell id="K9ZwCBfAX-9apRCx_4xD-30" value="Locust Html Results" style="shape=image;html=1;verticalAlign=top;verticalLabelPosition=bottom;labelBackgroundColor=#ffffff;imageAspect=0;aspect=fixed;image=https://cdn0.iconfinder.com/data/icons/communication-technology/500/code_brackets-128.png" vertex="1" parent="1">
          <mxGeometry x="1163" y="243.2" width="65" height="65" as="geometry" />
        </mxCell>
        <mxCell id="K9ZwCBfAX-9apRCx_4xD-31" value="" style="shape=flexArrow;endArrow=classic;html=1;rounded=0;" edge="1" parent="1">
          <mxGeometry width="50" height="50" relative="1" as="geometry">
            <mxPoint x="1101" y="280.7" as="sourcePoint" />
            <mxPoint x="1151" y="280.7" as="targetPoint" />
          </mxGeometry>
        </mxCell>
        <mxCell id="K9ZwCBfAX-9apRCx_4xD-32" value="Locust CSV Results" style="shape=image;verticalLabelPosition=bottom;labelBackgroundColor=default;verticalAlign=top;aspect=fixed;imageAspect=0;image=data:image/png,iVBORw0KGgoAAAANSUhEUgAAAOEAAADhCAMAAAAJbSJIAAAAflBMVEX///8AAADMzMw+Pj7i4uIeHh7u7u7CwsK0tLTS0tJdXV1ra2vPz8/8/Pw1NTXGxsb09PTY2Nh8fHyfn5+srKxycnJjY2NTU1Pp6emTk5O6urqHh4c4ODgXFxcxMTGjo6MmJiZHR0dMTEx5eXkjIyMRERGYmJgaGhqDg4OPj49o90J3AAAH10lEQVR4nO2de3+qPAzHBdm8DRXvl03nOXPH5/2/wUedU5KmpWBI3T75/guU/kibphfaRkNRFEVRFEVRFEVRFEVRHo7nyaj58VQL0zi0uCPZLKqTbhpa4KhWfUc+wkpM+3ULjKJNSInpR/0Cw0p8lRAYRf1gAtcyAo8SA1kxkRIYzIr1NhOQ1xBWTAUFHiUGULgSVRjCimJ+JpjEubBC+YLalFYobkWosPPMx3BikxhSYcKZdNtmRdmmP4RC2aY/iELRuhhGoWRdDKRQ0IqhFMpJDKZQTGI4hVKNRkCFQo2GmMLuJpAVxRRO439hrCimsNcZEGN6AlYUVPgyoKxYu0RBhfHL4CmAREmFYSSKKgwiUVZhCInCCmPa3XC+FiOtUN6K4grFrSivUNqKARRarFiXxBAKZa0YRKGoxDAKJSUGUkhLrGWuP5TCo8Q3woqc778QTKGYFcMppK244czBmYAKhdxNSIUWKzJLDKpQxIphFVo8KqtEudHErEORxe81SxRTuJl1SWZ/TIWsdTHkqL4DRokPqjB6YpP4qAqjOVc2HlZh1GHKxuMqHDFl43EVNpmyoQrvoPXrFQ5/vcLG9NcrvM+IP0FhI/v1ChvDO36o+hkKG430peXLYPIjFZZh8esVJqqwEqpQElVYDVUoiSqshiqURBVWQxVKogqroQolUYXVUIWSqMJqqEJJVGE1VKEkqrAav18h3J9mwZRqNeC8BdeCmmU+0TemRKuyz2fmkynR53yiY6ZEqzLOZ+aZK9XcRlGhTQiM+B9fqrcN28LWwhO3mjjjTHb7lWZvyJloRYa9r8xsmdONt+PVI+g7MVyNt4+wZ62iKIqiKIqiKIqiKMpPZbhIkmTxKKM9boaduNWKsxKZzT5vP2Q31wWDWotBKyvKQdzi+oPUIBvfJjL282VRVs7ZGRt/1M8nVpEvu3PSrtHCpMs9JHwl3e5xXqNlgSnTpfHImRE9vHwdYW9a073+mPnGPhP2Sef14Ppv/IV+5sSMmHjY3i7vLCnGt1v2vBtkOP5pnVgfsnyUC8ZED5gGatNJ5ovRgU3dsbB1XVmdW4rUf06BRzuh58Dc0juZJDwzhU9g4YFBZJVwW/AMlAg/Izl2vwO3+Hg6Lxy1yfGuQfFTaCIXOl1qegl96haTwDjywCiofqcMgXYNbWNCuCL0R+YLj0C/f1mn+LGiSvjFOv8IOrZnaWQFfzWeEOk58gO5bs/fmMGKCvwtjbxs4XWmxQq+Z+mgOMp2igyi73rXCucFRUcDFoEeDpF8HbU1EAF0J6jRxa0+8nj/WATCNSwuoA0JP/PeJDZdR+06uooaIdQo8ywNIVv6XW9m7k8F62EHXZ1lp+vpov3X9RT2NXCHFuwRWPwMzmh02pTr61IMPfdf+CAqb7nADsTiuCbh0AJ8AOSdDe9dCcOEu1yfIMmfbok+KKy+sEItrj0ww5XgU9BALwplhSWgMWrhGl6fWl8HvzdeodU6+6G/RA8KBULvuUvoGD+elXu4c2f0Oi+FcWZUCajQLFBpYundoT32clHLDl6x9D1KgvwJFSnG22WbCK9QI/Mx9nULY/hg93qhMByogrPeuzEb/D9br1VjOBa6fj0Ukq5diVTNZplyQQaz/UOr+CP14DPfwSluYHmGMNDLSj1LKTybclyQN0tprCckhQNPZqjvwrFF0uvWWSnRCcuXFqWWkBQVjHLtj7vP1XUsviODUxSS7u/RdQM5mpIjWwUHCfftY7roznOpriUkRWYo28IWdhBHtk9GBKe1hKQ4vihdtwvHBv5Zmg8cSaU1haQ4TOoWP4AoHt+xVG0UnE7qCUkbeNu/8go9Ti2nrWgEpygkZTvhEvov2zC7ixT1Bg0sW6xjk6EBA56QtIFN8FQpjazgUGg6+ELBaR89dI8oAKrxFX/hSA5OiaRXdPthnpD0DEzY7K76snK0jXSk5Nw0kvG/Dxg/VXA1V9L4QJyOc+KDvN/V0rDtkdwwmt47w/lkSw5r0RbBVS8HT0j6Bdol9v4/cVKivNKzK/bpSqaQ9JIhlDhdE8vFq+kEjVPQIaZ9Xof3Bzr8xc1yOjm1BqNy5RcWVkunDNWQG7wLVlAsEe1Ri7H4ri70fHN7NFsTdodDB5Y1FbbB9t6dkjDGC0C/ru188Xev3NAIG0hbx9oyr8427XvBnJcZXc2YgDwYOm4B2xxZHiZoq1f0FDL7STpUhZ9P4iRbLTfuV4OiOM19+WwHH7Q6f+J0EsaQlM6oE9Su4cu9ZTuOV58Ho6GzeqkxvvNEDad2EYdJ08CRF/8N161vpoJTxpD0SnEfj1RoWexl4uiuE8FpLb8ib833kMCX+61TiJwxmBmccoakOfw2h3+HD/l+l3fzfTeMOssZkubxmpJHTs53u3VnlwwHp/VtCFDQTz9hROV+SzjcxQ63VTXu6VAwukv5Cz8PVRBkrkvdfRcFa06oXTg8FsMV9jhhcMo1SkrTIY54+2ZPD9AvCgtqcZcE1A/ukBRj9f9ra5zhdqhdj0KXL+v3jKL4kS7NZd7HouMaghs6xtn8Isxb6PZW7yHyFwaobfxjX3R/YUgHN0/2ldOI78DYtg6Zn2yynjf7m9f5aDzw+6rxGndD1mVqVDqZb5qj2v6vYGIYt9fTXq83PXy2Oz/jvxlFURRFURRFURRFURRFURRFUUT5H8Nabp7i5fiDAAAAAElFTkSuQmCC;" vertex="1" parent="1">
          <mxGeometry x="1174" y="360.7" width="40" height="40" as="geometry" />
        </mxCell>
        <mxCell id="K9ZwCBfAX-9apRCx_4xD-33" value="" style="shape=flexArrow;endArrow=classic;html=1;rounded=0;" edge="1" parent="1">
          <mxGeometry width="50" height="50" relative="1" as="geometry">
            <mxPoint x="1101" y="380.7" as="sourcePoint" />
            <mxPoint x="1151" y="380.7" as="targetPoint" />
          </mxGeometry>
        </mxCell>
        <mxCell id="K9ZwCBfAX-9apRCx_4xD-34" style="edgeStyle=orthogonalEdgeStyle;rounded=0;orthogonalLoop=1;jettySize=auto;html=1;" edge="1" parent="1">
          <mxGeometry relative="1" as="geometry">
            <mxPoint x="1090" y="245.7" as="sourcePoint" />
            <mxPoint x="1090" y="265.7" as="targetPoint" />
          </mxGeometry>
        </mxCell>
        <mxCell id="K9ZwCBfAX-9apRCx_4xD-61" value="Scenario Node Group" style="rounded=0;whiteSpace=wrap;html=1;verticalAlign=bottom;labelPosition=center;verticalLabelPosition=top;align=center;" vertex="1" parent="1">
          <mxGeometry x="610" y="165" width="250" height="285" as="geometry" />
        </mxCell>
        <mxCell id="K9ZwCBfAX-9apRCx_4xD-62" value="" style="group" vertex="1" connectable="0" parent="1">
          <mxGeometry x="620" y="330" width="230" height="110" as="geometry" />
        </mxCell>
        <mxCell id="K9ZwCBfAX-9apRCx_4xD-63" value="Node 2" style="rounded=1;whiteSpace=wrap;html=1;labelPosition=center;verticalLabelPosition=top;align=left;verticalAlign=bottom;fillColor=#d5e8d4;strokeColor=#82b366;" vertex="1" parent="K9ZwCBfAX-9apRCx_4xD-62">
          <mxGeometry width="230" height="110" as="geometry" />
        </mxCell>
        <mxCell id="K9ZwCBfAX-9apRCx_4xD-64" value="" style="sketch=0;html=1;dashed=0;whitespace=wrap;fillColor=#2875E2;strokeColor=#ffffff;points=[[0.005,0.63,0],[0.1,0.2,0],[0.9,0.2,0],[0.5,0,0],[0.995,0.63,0],[0.72,0.99,0],[0.5,1,0],[0.28,0.99,0]];verticalLabelPosition=bottom;align=center;verticalAlign=top;shape=mxgraph.kubernetes.icon;prIcon=node" vertex="1" parent="K9ZwCBfAX-9apRCx_4xD-62">
          <mxGeometry x="10" y="2.5" width="30" height="30" as="geometry" />
        </mxCell>
        <mxCell id="K9ZwCBfAX-9apRCx_4xD-65" value="" style="shape=image;html=1;verticalAlign=top;verticalLabelPosition=bottom;labelBackgroundColor=#ffffff;imageAspect=0;aspect=fixed;image=https://cdn1.iconfinder.com/data/icons/social-media-2106/24/social_media_social_media_logo_docker-128.png" vertex="1" parent="K9ZwCBfAX-9apRCx_4xD-62">
          <mxGeometry x="20" y="45" width="49.5" height="49.5" as="geometry" />
        </mxCell>
        <mxCell id="K9ZwCBfAX-9apRCx_4xD-66" value="" style="shape=image;html=1;verticalAlign=top;verticalLabelPosition=bottom;labelBackgroundColor=#ffffff;imageAspect=0;aspect=fixed;image=https://cdn1.iconfinder.com/data/icons/social-media-2106/24/social_media_social_media_logo_docker-128.png" vertex="1" parent="K9ZwCBfAX-9apRCx_4xD-62">
          <mxGeometry x="90" y="45" width="49.5" height="49.5" as="geometry" />
        </mxCell>
        <mxCell id="K9ZwCBfAX-9apRCx_4xD-67" value="" style="shape=image;html=1;verticalAlign=top;verticalLabelPosition=bottom;labelBackgroundColor=#ffffff;imageAspect=0;aspect=fixed;image=https://cdn1.iconfinder.com/data/icons/social-media-2106/24/social_media_social_media_logo_docker-128.png" vertex="1" parent="K9ZwCBfAX-9apRCx_4xD-62">
          <mxGeometry x="160" y="45" width="49.5" height="49.5" as="geometry" />
        </mxCell>
        <mxCell id="K9ZwCBfAX-9apRCx_4xD-68" value="" style="group" vertex="1" connectable="0" parent="1">
          <mxGeometry x="620" y="200" width="230" height="110" as="geometry" />
        </mxCell>
        <mxCell id="K9ZwCBfAX-9apRCx_4xD-69" value="Node 1" style="rounded=1;whiteSpace=wrap;html=1;labelPosition=center;verticalLabelPosition=top;align=left;verticalAlign=bottom;fillColor=#d5e8d4;strokeColor=#82b366;" vertex="1" parent="K9ZwCBfAX-9apRCx_4xD-68">
          <mxGeometry width="230" height="110" as="geometry" />
        </mxCell>
        <mxCell id="K9ZwCBfAX-9apRCx_4xD-70" value="" style="sketch=0;html=1;dashed=0;whitespace=wrap;fillColor=#2875E2;strokeColor=#ffffff;points=[[0.005,0.63,0],[0.1,0.2,0],[0.9,0.2,0],[0.5,0,0],[0.995,0.63,0],[0.72,0.99,0],[0.5,1,0],[0.28,0.99,0]];verticalLabelPosition=bottom;align=center;verticalAlign=top;shape=mxgraph.kubernetes.icon;prIcon=node" vertex="1" parent="K9ZwCBfAX-9apRCx_4xD-68">
          <mxGeometry x="10" y="2.5" width="30" height="30" as="geometry" />
        </mxCell>
        <mxCell id="K9ZwCBfAX-9apRCx_4xD-71" value="" style="shape=image;html=1;verticalAlign=top;verticalLabelPosition=bottom;labelBackgroundColor=#ffffff;imageAspect=0;aspect=fixed;image=https://cdn1.iconfinder.com/data/icons/social-media-2106/24/social_media_social_media_logo_docker-128.png" vertex="1" parent="K9ZwCBfAX-9apRCx_4xD-68">
          <mxGeometry x="20" y="45" width="49.5" height="49.5" as="geometry" />
        </mxCell>
        <mxCell id="K9ZwCBfAX-9apRCx_4xD-72" value="" style="shape=image;html=1;verticalAlign=top;verticalLabelPosition=bottom;labelBackgroundColor=#ffffff;imageAspect=0;aspect=fixed;image=https://cdn1.iconfinder.com/data/icons/social-media-2106/24/social_media_social_media_logo_docker-128.png" vertex="1" parent="K9ZwCBfAX-9apRCx_4xD-68">
          <mxGeometry x="90" y="45" width="49.5" height="49.5" as="geometry" />
        </mxCell>
        <mxCell id="K9ZwCBfAX-9apRCx_4xD-73" value="" style="shape=image;html=1;verticalAlign=top;verticalLabelPosition=bottom;labelBackgroundColor=#ffffff;imageAspect=0;aspect=fixed;image=https://cdn1.iconfinder.com/data/icons/social-media-2106/24/social_media_social_media_logo_docker-128.png" vertex="1" parent="K9ZwCBfAX-9apRCx_4xD-68">
          <mxGeometry x="160" y="45" width="49.5" height="49.5" as="geometry" />
        </mxCell>
      </root>
    </mxGraphModel>
  </diagram>
</mxfile>
